<?xml version="1.0" encoding="utf-8" standalone="no"?>
<!DOCTYPE svg PUBLIC "-//W3C//DTD SVG 1.1//EN"
  "http://www.w3.org/Graphics/SVG/1.1/DTD/svg11.dtd">
<!-- Created with matplotlib (https://matplotlib.org/) -->
<svg height="1440pt" version="1.1" viewBox="0 0 1440 1440" width="1440pt" xmlns="http://www.w3.org/2000/svg" xmlns:xlink="http://www.w3.org/1999/xlink">
 <defs>
  <style type="text/css">
*{stroke-linecap:butt;stroke-linejoin:round;}
  </style>
 </defs>
 <g id="figure_1">
  <g id="patch_1">
   <path d="M 0 1440 
L 1440 1440 
L 1440 0 
L 0 0 
z
" style="fill:#ffffff;"/>
  </g>
  <g id="axes_1">
   <g id="patch_2">
    <path d="M 180 1281.6 
L 1296 1281.6 
L 1296 172.8 
L 180 172.8 
z
" style="fill:#ffffff;"/>
   </g>
   <g id="PathCollection_1">
    <defs>
     <path d="M 0 3 
C 0.795609 3 1.55874 2.683901 2.12132 2.12132 
C 2.683901 1.55874 3 0.795609 3 0 
C 3 -0.795609 2.683901 -1.55874 2.12132 -2.12132 
C 1.55874 -2.683901 0.795609 -3 0 -3 
C -0.795609 -3 -1.55874 -2.683901 -2.12132 -2.12132 
C -2.683901 -1.55874 -3 -0.795609 -3 0 
C -3 0.795609 -2.683901 1.55874 -2.12132 2.12132 
C -1.55874 2.683901 -0.795609 3 0 3 
z
" id="C0_0_3fb9805a06"/>
    </defs>
    <g clip-path="url(#p5b40fad607)">
     <use style="fill:#fff7f3;stroke:#000000;" x="230.747107" xlink:href="#C0_0_3fb9805a06" y="1231.18336"/>
    </g>
    <g clip-path="url(#p5b40fad607)">
     <use style="fill:#fff6f2;stroke:#000000;" x="240.99464" xlink:href="#C0_0_3fb9805a06" y="1222.641269"/>
    </g>
    <g clip-path="url(#p5b40fad607)">
     <use style="fill:#fff3f0;stroke:#000000;" x="251.242173" xlink:href="#C0_0_3fb9805a06" y="1171.388724"/>
    </g>
    <g clip-path="url(#p5b40fad607)">
     <use style="fill:#fff2ee;stroke:#000000;" x="261.489706" xlink:href="#C0_0_3fb9805a06" y="1214.099178"/>
    </g>
    <g clip-path="url(#p5b40fad607)">
     <use style="fill:#fef0ec;stroke:#000000;" x="271.737239" xlink:href="#C0_0_3fb9805a06" y="1188.472905"/>
    </g>
    <g clip-path="url(#p5b40fad607)">
     <use style="fill:#feeeeb;stroke:#000000;" x="281.984773" xlink:href="#C0_0_3fb9805a06" y="1162.846633"/>
    </g>
    <g clip-path="url(#p5b40fad607)">
     <use style="fill:#feece9;stroke:#000000;" x="292.232306" xlink:href="#C0_0_3fb9805a06" y="1094.509906"/>
    </g>
    <g clip-path="url(#p5b40fad607)">
     <use style="fill:#feebe7;stroke:#000000;" x="302.479839" xlink:href="#C0_0_3fb9805a06" y="1205.557087"/>
    </g>
    <g clip-path="url(#p5b40fad607)">
     <use style="fill:#fee9e5;stroke:#000000;" x="312.727372" xlink:href="#C0_0_3fb9805a06" y="1068.883634"/>
    </g>
    <g clip-path="url(#p5b40fad607)">
     <use style="fill:#fee6e3;stroke:#000000;" x="322.974905" xlink:href="#C0_0_3fb9805a06" y="1179.930815"/>
    </g>
    <g clip-path="url(#p5b40fad607)">
     <use style="fill:#fde5e2;stroke:#000000;" x="333.222439" xlink:href="#C0_0_3fb9805a06" y="1111.594088"/>
    </g>
    <g clip-path="url(#p5b40fad607)">
     <use style="fill:#fde3e0;stroke:#000000;" x="343.469972" xlink:href="#C0_0_3fb9805a06" y="1154.304542"/>
    </g>
    <g clip-path="url(#p5b40fad607)">
     <use style="fill:#fde1de;stroke:#000000;" x="353.717505" xlink:href="#C0_0_3fb9805a06" y="1154.304542"/>
    </g>
    <g clip-path="url(#p5b40fad607)">
     <use style="fill:#fddfdc;stroke:#000000;" x="363.965038" xlink:href="#C0_0_3fb9805a06" y="1085.967815"/>
    </g>
    <g clip-path="url(#p5b40fad607)">
     <use style="fill:#fdddda;stroke:#000000;" x="374.212571" xlink:href="#C0_0_3fb9805a06" y="1085.967815"/>
    </g>
    <g clip-path="url(#p5b40fad607)">
     <use style="fill:#fddbd7;stroke:#000000;" x="384.460105" xlink:href="#C0_0_3fb9805a06" y="1197.014996"/>
    </g>
    <g clip-path="url(#p5b40fad607)">
     <use style="fill:#fdd9d6;stroke:#000000;" x="394.707638" xlink:href="#C0_0_3fb9805a06" y="1128.678269"/>
    </g>
    <g clip-path="url(#p5b40fad607)">
     <use style="fill:#fdd7d3;stroke:#000000;" x="404.955171" xlink:href="#C0_0_3fb9805a06" y="1060.341543"/>
    </g>
    <g clip-path="url(#p5b40fad607)">
     <use style="fill:#fdd4d0;stroke:#000000;" x="415.202704" xlink:href="#C0_0_3fb9805a06" y="1060.341543"/>
    </g>
    <g clip-path="url(#p5b40fad607)">
     <use style="fill:#fcd2ce;stroke:#000000;" x="425.450237" xlink:href="#C0_0_3fb9805a06" y="1171.388724"/>
    </g>
    <g clip-path="url(#p5b40fad607)">
     <use style="fill:#fcd0cc;stroke:#000000;" x="435.697771" xlink:href="#C0_0_3fb9805a06" y="1171.388724"/>
    </g>
    <g clip-path="url(#p5b40fad607)">
     <use style="fill:#fcceca;stroke:#000000;" x="445.945304" xlink:href="#C0_0_3fb9805a06" y="1103.051997"/>
    </g>
    <g clip-path="url(#p5b40fad607)">
     <use style="fill:#fcccc7;stroke:#000000;" x="456.192837" xlink:href="#C0_0_3fb9805a06" y="1103.051997"/>
    </g>
    <g clip-path="url(#p5b40fad607)">
     <use style="fill:#fccac5;stroke:#000000;" x="466.44037" xlink:href="#C0_0_3fb9805a06" y="1145.762451"/>
    </g>
    <g clip-path="url(#p5b40fad607)">
     <use style="fill:#fcc7c3;stroke:#000000;" x="476.687903" xlink:href="#C0_0_3fb9805a06" y="1034.71527"/>
    </g>
    <g clip-path="url(#p5b40fad607)">
     <use style="fill:#fcc5c0;stroke:#000000;" x="486.935437" xlink:href="#C0_0_3fb9805a06" y="1145.762451"/>
    </g>
    <g clip-path="url(#p5b40fad607)">
     <use style="fill:#fcc2bf;stroke:#000000;" x="497.18297" xlink:href="#C0_0_3fb9805a06" y="283.011276"/>
    </g>
    <g clip-path="url(#p5b40fad607)">
     <use style="fill:#fcbfbe;stroke:#000000;" x="507.430503" xlink:href="#C0_0_3fb9805a06" y="1077.425724"/>
    </g>
    <g clip-path="url(#p5b40fad607)">
     <use style="fill:#fcbcbd;stroke:#000000;" x="517.678036" xlink:href="#C0_0_3fb9805a06" y="1077.425724"/>
    </g>
    <g clip-path="url(#p5b40fad607)">
     <use style="fill:#fbb9bc;stroke:#000000;" x="527.925569" xlink:href="#C0_0_3fb9805a06" y="1077.425724"/>
    </g>
    <g clip-path="url(#p5b40fad607)">
     <use style="fill:#fbb6bc;stroke:#000000;" x="538.173103" xlink:href="#C0_0_3fb9805a06" y="325.721731"/>
    </g>
    <g clip-path="url(#p5b40fad607)">
     <use style="fill:#fbb3bb;stroke:#000000;" x="548.420636" xlink:href="#C0_0_3fb9805a06" y="1188.472905"/>
    </g>
    <g clip-path="url(#p5b40fad607)">
     <use style="fill:#fbb0ba;stroke:#000000;" x="558.668169" xlink:href="#C0_0_3fb9805a06" y="1009.088998"/>
    </g>
    <g clip-path="url(#p5b40fad607)">
     <use style="fill:#fbadb9;stroke:#000000;" x="568.915702" xlink:href="#C0_0_3fb9805a06" y="1120.136179"/>
    </g>
    <g clip-path="url(#p5b40fad607)">
     <use style="fill:#fba9b8;stroke:#000000;" x="579.163235" xlink:href="#C0_0_3fb9805a06" y="1120.136179"/>
    </g>
    <g clip-path="url(#p5b40fad607)">
     <use style="fill:#faa7b7;stroke:#000000;" x="589.410769" xlink:href="#C0_0_3fb9805a06" y="1051.799452"/>
    </g>
    <g clip-path="url(#p5b40fad607)">
     <use style="fill:#faa3b6;stroke:#000000;" x="599.658302" xlink:href="#C0_0_3fb9805a06" y="1051.799452"/>
    </g>
    <g clip-path="url(#p5b40fad607)">
     <use style="fill:#faa1b6;stroke:#000000;" x="609.905835" xlink:href="#C0_0_3fb9805a06" y="1051.799452"/>
    </g>
    <g clip-path="url(#p5b40fad607)">
     <use style="fill:#fa9db4;stroke:#000000;" x="620.153368" xlink:href="#C0_0_3fb9805a06" y="940.752271"/>
    </g>
    <g clip-path="url(#p5b40fad607)">
     <use style="fill:#fa99b3;stroke:#000000;" x="630.400901" xlink:href="#C0_0_3fb9805a06" y="1162.846633"/>
    </g>
    <g clip-path="url(#p5b40fad607)">
     <use style="fill:#f994b1;stroke:#000000;" x="640.648435" xlink:href="#C0_0_3fb9805a06" y="300.095458"/>
    </g>
    <g clip-path="url(#p5b40fad607)">
     <use style="fill:#f991b0;stroke:#000000;" x="650.895968" xlink:href="#C0_0_3fb9805a06" y="1162.846633"/>
    </g>
    <g clip-path="url(#p5b40fad607)">
     <use style="fill:#f98bae;stroke:#000000;" x="661.143501" xlink:href="#C0_0_3fb9805a06" y="983.462725"/>
    </g>
    <g clip-path="url(#p5b40fad607)">
     <use style="fill:#f986ac;stroke:#000000;" x="671.391034" xlink:href="#C0_0_3fb9805a06" y="1094.509906"/>
    </g>
    <g clip-path="url(#p5b40fad607)">
     <use style="fill:#f883ab;stroke:#000000;" x="681.638567" xlink:href="#C0_0_3fb9805a06" y="1094.509906"/>
    </g>
    <g clip-path="url(#p5b40fad607)">
     <use style="fill:#f87ea9;stroke:#000000;" x="691.886101" xlink:href="#C0_0_3fb9805a06" y="1094.509906"/>
    </g>
    <g clip-path="url(#p5b40fad607)">
     <use style="fill:#f87aa8;stroke:#000000;" x="702.133634" xlink:href="#C0_0_3fb9805a06" y="342.805912"/>
    </g>
    <g clip-path="url(#p5b40fad607)">
     <use style="fill:#f875a6;stroke:#000000;" x="712.381167" xlink:href="#C0_0_3fb9805a06" y="1137.22036"/>
    </g>
    <g clip-path="url(#p5b40fad607)">
     <use style="fill:#f871a4;stroke:#000000;" x="722.6287" xlink:href="#C0_0_3fb9805a06" y="1026.173179"/>
    </g>
    <g clip-path="url(#p5b40fad607)">
     <use style="fill:#f76ca3;stroke:#000000;" x="732.876233" xlink:href="#C0_0_3fb9805a06" y="1026.173179"/>
    </g>
    <g clip-path="url(#p5b40fad607)">
     <use style="fill:#f767a1;stroke:#000000;" x="743.123767" xlink:href="#C0_0_3fb9805a06" y="1026.173179"/>
    </g>
    <g clip-path="url(#p5b40fad607)">
     <use style="fill:#f564a0;stroke:#000000;" x="753.3713" xlink:href="#C0_0_3fb9805a06" y="1137.22036"/>
    </g>
    <g clip-path="url(#p5b40fad607)">
     <use style="fill:#f35f9f;stroke:#000000;" x="763.618833" xlink:href="#C0_0_3fb9805a06" y="1137.22036"/>
    </g>
    <g clip-path="url(#p5b40fad607)">
     <use style="fill:#f15c9f;stroke:#000000;" x="773.866366" xlink:href="#C0_0_3fb9805a06" y="274.469185"/>
    </g>
    <g clip-path="url(#p5b40fad607)">
     <use style="fill:#ee579e;stroke:#000000;" x="784.113899" xlink:href="#C0_0_3fb9805a06" y="274.469185"/>
    </g>
    <g clip-path="url(#p5b40fad607)">
     <use style="fill:#ed549d;stroke:#000000;" x="794.361433" xlink:href="#C0_0_3fb9805a06" y="1068.883634"/>
    </g>
    <g clip-path="url(#p5b40fad607)">
     <use style="fill:#ea4f9c;stroke:#000000;" x="804.608966" xlink:href="#C0_0_3fb9805a06" y="957.836453"/>
    </g>
    <g clip-path="url(#p5b40fad607)">
     <use style="fill:#e94b9c;stroke:#000000;" x="814.856499" xlink:href="#C0_0_3fb9805a06" y="1068.883634"/>
    </g>
    <g clip-path="url(#p5b40fad607)">
     <use style="fill:#e6479b;stroke:#000000;" x="825.104032" xlink:href="#C0_0_3fb9805a06" y="957.836453"/>
    </g>
    <g clip-path="url(#p5b40fad607)">
     <use style="fill:#e4429a;stroke:#000000;" x="835.351565" xlink:href="#C0_0_3fb9805a06" y="1068.883634"/>
    </g>
    <g clip-path="url(#p5b40fad607)">
     <use style="fill:#e23e99;stroke:#000000;" x="845.599099" xlink:href="#C0_0_3fb9805a06" y="1068.883634"/>
    </g>
    <g clip-path="url(#p5b40fad607)">
     <use style="fill:#e03a98;stroke:#000000;" x="855.846632" xlink:href="#C0_0_3fb9805a06" y="317.17964"/>
    </g>
    <g clip-path="url(#p5b40fad607)">
     <use style="fill:#de3697;stroke:#000000;" x="866.094165" xlink:href="#C0_0_3fb9805a06" y="317.17964"/>
    </g>
    <g clip-path="url(#p5b40fad607)">
     <use style="fill:#db3196;stroke:#000000;" x="876.341698" xlink:href="#C0_0_3fb9805a06" y="1179.930815"/>
    </g>
    <g clip-path="url(#p5b40fad607)">
     <use style="fill:#d82e94;stroke:#000000;" x="886.589231" xlink:href="#C0_0_3fb9805a06" y="1000.546907"/>
    </g>
    <g clip-path="url(#p5b40fad607)">
     <use style="fill:#d32992;stroke:#000000;" x="896.836765" xlink:href="#C0_0_3fb9805a06" y="1000.546907"/>
    </g>
    <g clip-path="url(#p5b40fad607)">
     <use style="fill:#d02690;stroke:#000000;" x="907.084298" xlink:href="#C0_0_3fb9805a06" y="1000.546907"/>
    </g>
    <g clip-path="url(#p5b40fad607)">
     <use style="fill:#cc218e;stroke:#000000;" x="917.331831" xlink:href="#C0_0_3fb9805a06" y="1111.594088"/>
    </g>
    <g clip-path="url(#p5b40fad607)">
     <use style="fill:#c71d8c;stroke:#000000;" x="927.579364" xlink:href="#C0_0_3fb9805a06" y="1111.594088"/>
    </g>
    <g clip-path="url(#p5b40fad607)">
     <use style="fill:#c4198a;stroke:#000000;" x="937.826897" xlink:href="#C0_0_3fb9805a06" y="1111.594088"/>
    </g>
    <g clip-path="url(#p5b40fad607)">
     <use style="fill:#c01588;stroke:#000000;" x="948.074431" xlink:href="#C0_0_3fb9805a06" y="359.890094"/>
    </g>
    <g clip-path="url(#p5b40fad607)">
     <use style="fill:#bd1186;stroke:#000000;" x="958.321964" xlink:href="#C0_0_3fb9805a06" y="1043.257361"/>
    </g>
    <g clip-path="url(#p5b40fad607)">
     <use style="fill:#b90d84;stroke:#000000;" x="968.569497" xlink:href="#C0_0_3fb9805a06" y="248.842913"/>
    </g>
    <g clip-path="url(#p5b40fad607)">
     <use style="fill:#b60982;stroke:#000000;" x="978.81703" xlink:href="#C0_0_3fb9805a06" y="1043.257361"/>
    </g>
    <g clip-path="url(#p5b40fad607)">
     <use style="fill:#b10580;stroke:#000000;" x="989.064563" xlink:href="#C0_0_3fb9805a06" y="1111.594088"/>
    </g>
    <g clip-path="url(#p5b40fad607)">
     <use style="fill:#ad017e;stroke:#000000;" x="999.312097" xlink:href="#C0_0_3fb9805a06" y="1043.257361"/>
    </g>
    <g clip-path="url(#p5b40fad607)">
     <use style="fill:#aa017d;stroke:#000000;" x="1009.55963" xlink:href="#C0_0_3fb9805a06" y="1043.257361"/>
    </g>
    <g clip-path="url(#p5b40fad607)">
     <use style="fill:#a5017d;stroke:#000000;" x="1019.807163" xlink:href="#C0_0_3fb9805a06" y="932.21018"/>
    </g>
    <g clip-path="url(#p5b40fad607)">
     <use style="fill:#a1017c;stroke:#000000;" x="1030.054696" xlink:href="#C0_0_3fb9805a06" y="932.21018"/>
    </g>
    <g clip-path="url(#p5b40fad607)">
     <use style="fill:#9c017c;stroke:#000000;" x="1040.302229" xlink:href="#C0_0_3fb9805a06" y="1154.304542"/>
    </g>
    <g clip-path="url(#p5b40fad607)">
     <use style="fill:#99017b;stroke:#000000;" x="1050.549763" xlink:href="#C0_0_3fb9805a06" y="1043.257361"/>
    </g>
    <g clip-path="url(#p5b40fad607)">
     <use style="fill:#94017b;stroke:#000000;" x="1060.797296" xlink:href="#C0_0_3fb9805a06" y="291.553367"/>
    </g>
    <g clip-path="url(#p5b40fad607)">
     <use style="fill:#91017a;stroke:#000000;" x="1071.044829" xlink:href="#C0_0_3fb9805a06" y="291.553367"/>
    </g>
    <g clip-path="url(#p5b40fad607)">
     <use style="fill:#8c0179;stroke:#000000;" x="1081.292362" xlink:href="#C0_0_3fb9805a06" y="1154.304542"/>
    </g>
    <g clip-path="url(#p5b40fad607)">
     <use style="fill:#870179;stroke:#000000;" x="1091.539895" xlink:href="#C0_0_3fb9805a06" y="1154.304542"/>
    </g>
    <g clip-path="url(#p5b40fad607)">
     <use style="fill:#840178;stroke:#000000;" x="1101.787429" xlink:href="#C0_0_3fb9805a06" y="974.920634"/>
    </g>
    <g clip-path="url(#p5b40fad607)">
     <use style="fill:#7f0178;stroke:#000000;" x="1112.034962" xlink:href="#C0_0_3fb9805a06" y="974.920634"/>
    </g>
    <g clip-path="url(#p5b40fad607)">
     <use style="fill:#7c0177;stroke:#000000;" x="1122.282495" xlink:href="#C0_0_3fb9805a06" y="1085.967815"/>
    </g>
    <g clip-path="url(#p5b40fad607)">
     <use style="fill:#770176;stroke:#000000;" x="1132.530028" xlink:href="#C0_0_3fb9805a06" y="974.920634"/>
    </g>
    <g clip-path="url(#p5b40fad607)">
     <use style="fill:#740175;stroke:#000000;" x="1142.777561" xlink:href="#C0_0_3fb9805a06" y="1085.967815"/>
    </g>
    <g clip-path="url(#p5b40fad607)">
     <use style="fill:#6f0174;stroke:#000000;" x="1153.025095" xlink:href="#C0_0_3fb9805a06" y="445.311002"/>
    </g>
    <g clip-path="url(#p5b40fad607)">
     <use style="fill:#6c0173;stroke:#000000;" x="1163.272628" xlink:href="#C0_0_3fb9805a06" y="1085.967815"/>
    </g>
    <g clip-path="url(#p5b40fad607)">
     <use style="fill:#680172;stroke:#000000;" x="1173.520161" xlink:href="#C0_0_3fb9805a06" y="1085.967815"/>
    </g>
    <g clip-path="url(#p5b40fad607)">
     <use style="fill:#630171;stroke:#000000;" x="1183.767694" xlink:href="#C0_0_3fb9805a06" y="334.263821"/>
    </g>
    <g clip-path="url(#p5b40fad607)">
     <use style="fill:#600070;stroke:#000000;" x="1194.015227" xlink:href="#C0_0_3fb9805a06" y="334.263821"/>
    </g>
    <g clip-path="url(#p5b40fad607)">
     <use style="fill:#5b006f;stroke:#000000;" x="1204.262761" xlink:href="#C0_0_3fb9805a06" y="1128.678269"/>
    </g>
    <g clip-path="url(#p5b40fad607)">
     <use style="fill:#58006e;stroke:#000000;" x="1214.510294" xlink:href="#C0_0_3fb9805a06" y="223.21664"/>
    </g>
    <g clip-path="url(#p5b40fad607)">
     <use style="fill:#54006d;stroke:#000000;" x="1224.757827" xlink:href="#C0_0_3fb9805a06" y="1017.631089"/>
    </g>
    <g clip-path="url(#p5b40fad607)">
     <use style="fill:#51006c;stroke:#000000;" x="1235.00536" xlink:href="#C0_0_3fb9805a06" y="1017.631089"/>
    </g>
    <g clip-path="url(#p5b40fad607)">
     <use style="fill:#4c006b;stroke:#000000;" x="1245.252893" xlink:href="#C0_0_3fb9805a06" y="1017.631089"/>
    </g>
   </g>
   <g id="matplotlib.axis_1">
    <g id="xtick_1">
     <g id="line2d_1">
      <defs>
       <path d="M 0 0 
L 0 3.5 
" id="mf3ae0e0319" style="stroke:#000000;stroke-width:0.8;"/>
      </defs>
      <g>
       <use style="stroke:#000000;stroke-width:0.8;" x="220.499573" xlink:href="#mf3ae0e0319" y="1281.6"/>
      </g>
     </g>
     <g id="text_1">
      <!-- 0 -->
      <defs>
       <path d="M 31.78125 66.40625 
Q 24.171875 66.40625 20.328125 58.90625 
Q 16.5 51.421875 16.5 36.375 
Q 16.5 21.390625 20.328125 13.890625 
Q 24.171875 6.390625 31.78125 6.390625 
Q 39.453125 6.390625 43.28125 13.890625 
Q 47.125 21.390625 47.125 36.375 
Q 47.125 51.421875 43.28125 58.90625 
Q 39.453125 66.40625 31.78125 66.40625 
z
M 31.78125 74.21875 
Q 44.046875 74.21875 50.515625 64.515625 
Q 56.984375 54.828125 56.984375 36.375 
Q 56.984375 17.96875 50.515625 8.265625 
Q 44.046875 -1.421875 31.78125 -1.421875 
Q 19.53125 -1.421875 13.0625 8.265625 
Q 6.59375 17.96875 6.59375 36.375 
Q 6.59375 54.828125 13.0625 64.515625 
Q 19.53125 74.21875 31.78125 74.21875 
z
" id="DejaVuSans-48"/>
      </defs>
      <g transform="translate(217.318323 1296.198437)scale(0.1 -0.1)">
       <use xlink:href="#DejaVuSans-48"/>
      </g>
     </g>
    </g>
    <g id="xtick_2">
     <g id="line2d_2">
      <g>
       <use style="stroke:#000000;stroke-width:0.8;" x="425.450237" xlink:href="#mf3ae0e0319" y="1281.6"/>
      </g>
     </g>
     <g id="text_2">
      <!-- 20 -->
      <defs>
       <path d="M 19.1875 8.296875 
L 53.609375 8.296875 
L 53.609375 0 
L 7.328125 0 
L 7.328125 8.296875 
Q 12.9375 14.109375 22.625 23.890625 
Q 32.328125 33.6875 34.8125 36.53125 
Q 39.546875 41.84375 41.421875 45.53125 
Q 43.3125 49.21875 43.3125 52.78125 
Q 43.3125 58.59375 39.234375 62.25 
Q 35.15625 65.921875 28.609375 65.921875 
Q 23.96875 65.921875 18.8125 64.3125 
Q 13.671875 62.703125 7.8125 59.421875 
L 7.8125 69.390625 
Q 13.765625 71.78125 18.9375 73 
Q 24.125 74.21875 28.421875 74.21875 
Q 39.75 74.21875 46.484375 68.546875 
Q 53.21875 62.890625 53.21875 53.421875 
Q 53.21875 48.921875 51.53125 44.890625 
Q 49.859375 40.875 45.40625 35.40625 
Q 44.1875 33.984375 37.640625 27.21875 
Q 31.109375 20.453125 19.1875 8.296875 
z
" id="DejaVuSans-50"/>
      </defs>
      <g transform="translate(419.087737 1296.198437)scale(0.1 -0.1)">
       <use xlink:href="#DejaVuSans-50"/>
       <use x="63.623047" xlink:href="#DejaVuSans-48"/>
      </g>
     </g>
    </g>
    <g id="xtick_3">
     <g id="line2d_3">
      <g>
       <use style="stroke:#000000;stroke-width:0.8;" x="630.400901" xlink:href="#mf3ae0e0319" y="1281.6"/>
      </g>
     </g>
     <g id="text_3">
      <!-- 40 -->
      <defs>
       <path d="M 37.796875 64.3125 
L 12.890625 25.390625 
L 37.796875 25.390625 
z
M 35.203125 72.90625 
L 47.609375 72.90625 
L 47.609375 25.390625 
L 58.015625 25.390625 
L 58.015625 17.1875 
L 47.609375 17.1875 
L 47.609375 0 
L 37.796875 0 
L 37.796875 17.1875 
L 4.890625 17.1875 
L 4.890625 26.703125 
z
" id="DejaVuSans-52"/>
      </defs>
      <g transform="translate(624.038401 1296.198437)scale(0.1 -0.1)">
       <use xlink:href="#DejaVuSans-52"/>
       <use x="63.623047" xlink:href="#DejaVuSans-48"/>
      </g>
     </g>
    </g>
    <g id="xtick_4">
     <g id="line2d_4">
      <g>
       <use style="stroke:#000000;stroke-width:0.8;" x="835.351565" xlink:href="#mf3ae0e0319" y="1281.6"/>
      </g>
     </g>
     <g id="text_4">
      <!-- 60 -->
      <defs>
       <path d="M 33.015625 40.375 
Q 26.375 40.375 22.484375 35.828125 
Q 18.609375 31.296875 18.609375 23.390625 
Q 18.609375 15.53125 22.484375 10.953125 
Q 26.375 6.390625 33.015625 6.390625 
Q 39.65625 6.390625 43.53125 10.953125 
Q 47.40625 15.53125 47.40625 23.390625 
Q 47.40625 31.296875 43.53125 35.828125 
Q 39.65625 40.375 33.015625 40.375 
z
M 52.59375 71.296875 
L 52.59375 62.3125 
Q 48.875 64.0625 45.09375 64.984375 
Q 41.3125 65.921875 37.59375 65.921875 
Q 27.828125 65.921875 22.671875 59.328125 
Q 17.53125 52.734375 16.796875 39.40625 
Q 19.671875 43.65625 24.015625 45.921875 
Q 28.375 48.1875 33.59375 48.1875 
Q 44.578125 48.1875 50.953125 41.515625 
Q 57.328125 34.859375 57.328125 23.390625 
Q 57.328125 12.15625 50.6875 5.359375 
Q 44.046875 -1.421875 33.015625 -1.421875 
Q 20.359375 -1.421875 13.671875 8.265625 
Q 6.984375 17.96875 6.984375 36.375 
Q 6.984375 53.65625 15.1875 63.9375 
Q 23.390625 74.21875 37.203125 74.21875 
Q 40.921875 74.21875 44.703125 73.484375 
Q 48.484375 72.75 52.59375 71.296875 
z
" id="DejaVuSans-54"/>
      </defs>
      <g transform="translate(828.989065 1296.198437)scale(0.1 -0.1)">
       <use xlink:href="#DejaVuSans-54"/>
       <use x="63.623047" xlink:href="#DejaVuSans-48"/>
      </g>
     </g>
    </g>
    <g id="xtick_5">
     <g id="line2d_5">
      <g>
       <use style="stroke:#000000;stroke-width:0.8;" x="1040.302229" xlink:href="#mf3ae0e0319" y="1281.6"/>
      </g>
     </g>
     <g id="text_5">
      <!-- 80 -->
      <defs>
       <path d="M 31.78125 34.625 
Q 24.75 34.625 20.71875 30.859375 
Q 16.703125 27.09375 16.703125 20.515625 
Q 16.703125 13.921875 20.71875 10.15625 
Q 24.75 6.390625 31.78125 6.390625 
Q 38.8125 6.390625 42.859375 10.171875 
Q 46.921875 13.96875 46.921875 20.515625 
Q 46.921875 27.09375 42.890625 30.859375 
Q 38.875 34.625 31.78125 34.625 
z
M 21.921875 38.8125 
Q 15.578125 40.375 12.03125 44.71875 
Q 8.5 49.078125 8.5 55.328125 
Q 8.5 64.0625 14.71875 69.140625 
Q 20.953125 74.21875 31.78125 74.21875 
Q 42.671875 74.21875 48.875 69.140625 
Q 55.078125 64.0625 55.078125 55.328125 
Q 55.078125 49.078125 51.53125 44.71875 
Q 48 40.375 41.703125 38.8125 
Q 48.828125 37.15625 52.796875 32.3125 
Q 56.78125 27.484375 56.78125 20.515625 
Q 56.78125 9.90625 50.3125 4.234375 
Q 43.84375 -1.421875 31.78125 -1.421875 
Q 19.734375 -1.421875 13.25 4.234375 
Q 6.78125 9.90625 6.78125 20.515625 
Q 6.78125 27.484375 10.78125 32.3125 
Q 14.796875 37.15625 21.921875 38.8125 
z
M 18.3125 54.390625 
Q 18.3125 48.734375 21.84375 45.5625 
Q 25.390625 42.390625 31.78125 42.390625 
Q 38.140625 42.390625 41.71875 45.5625 
Q 45.3125 48.734375 45.3125 54.390625 
Q 45.3125 60.0625 41.71875 63.234375 
Q 38.140625 66.40625 31.78125 66.40625 
Q 25.390625 66.40625 21.84375 63.234375 
Q 18.3125 60.0625 18.3125 54.390625 
z
" id="DejaVuSans-56"/>
      </defs>
      <g transform="translate(1033.939729 1296.198437)scale(0.1 -0.1)">
       <use xlink:href="#DejaVuSans-56"/>
       <use x="63.623047" xlink:href="#DejaVuSans-48"/>
      </g>
     </g>
    </g>
    <g id="xtick_6">
     <g id="line2d_6">
      <g>
       <use style="stroke:#000000;stroke-width:0.8;" x="1245.252893" xlink:href="#mf3ae0e0319" y="1281.6"/>
      </g>
     </g>
     <g id="text_6">
      <!-- 100 -->
      <defs>
       <path d="M 12.40625 8.296875 
L 28.515625 8.296875 
L 28.515625 63.921875 
L 10.984375 60.40625 
L 10.984375 69.390625 
L 28.421875 72.90625 
L 38.28125 72.90625 
L 38.28125 8.296875 
L 54.390625 8.296875 
L 54.390625 0 
L 12.40625 0 
z
" id="DejaVuSans-49"/>
      </defs>
      <g transform="translate(1235.709143 1296.198437)scale(0.1 -0.1)">
       <use xlink:href="#DejaVuSans-49"/>
       <use x="63.623047" xlink:href="#DejaVuSans-48"/>
       <use x="127.246094" xlink:href="#DejaVuSans-48"/>
      </g>
     </g>
    </g>
   </g>
   <g id="matplotlib.axis_2">
    <g id="ytick_1">
     <g id="line2d_7">
      <defs>
       <path d="M 0 0 
L -3.5 0 
" id="m40fdcb84e7" style="stroke:#000000;stroke-width:0.8;"/>
      </defs>
      <g>
       <use style="stroke:#000000;stroke-width:0.8;" x="180" xlink:href="#m40fdcb84e7" y="1239.72545"/>
      </g>
     </g>
     <g id="text_7">
      <!-- 0 -->
      <g transform="translate(166.6375 1243.524669)scale(0.1 -0.1)">
       <use xlink:href="#DejaVuSans-48"/>
      </g>
     </g>
    </g>
    <g id="ytick_2">
     <g id="line2d_8">
      <g>
       <use style="stroke:#000000;stroke-width:0.8;" x="180" xlink:href="#m40fdcb84e7" y="1068.883634"/>
      </g>
     </g>
     <g id="text_8">
      <!-- 20 -->
      <g transform="translate(160.275 1072.682852)scale(0.1 -0.1)">
       <use xlink:href="#DejaVuSans-50"/>
       <use x="63.623047" xlink:href="#DejaVuSans-48"/>
      </g>
     </g>
    </g>
    <g id="ytick_3">
     <g id="line2d_9">
      <g>
       <use style="stroke:#000000;stroke-width:0.8;" x="180" xlink:href="#m40fdcb84e7" y="898.041817"/>
      </g>
     </g>
     <g id="text_9">
      <!-- 40 -->
      <g transform="translate(160.275 901.841036)scale(0.1 -0.1)">
       <use xlink:href="#DejaVuSans-52"/>
       <use x="63.623047" xlink:href="#DejaVuSans-48"/>
      </g>
     </g>
    </g>
    <g id="ytick_4">
     <g id="line2d_10">
      <g>
       <use style="stroke:#000000;stroke-width:0.8;" x="180" xlink:href="#m40fdcb84e7" y="727.2"/>
      </g>
     </g>
     <g id="text_10">
      <!-- 60 -->
      <g transform="translate(160.275 730.999219)scale(0.1 -0.1)">
       <use xlink:href="#DejaVuSans-54"/>
       <use x="63.623047" xlink:href="#DejaVuSans-48"/>
      </g>
     </g>
    </g>
    <g id="ytick_5">
     <g id="line2d_11">
      <g>
       <use style="stroke:#000000;stroke-width:0.8;" x="180" xlink:href="#m40fdcb84e7" y="556.358183"/>
      </g>
     </g>
     <g id="text_11">
      <!-- 80 -->
      <g transform="translate(160.275 560.157402)scale(0.1 -0.1)">
       <use xlink:href="#DejaVuSans-56"/>
       <use x="63.623047" xlink:href="#DejaVuSans-48"/>
      </g>
     </g>
    </g>
    <g id="ytick_6">
     <g id="line2d_12">
      <g>
       <use style="stroke:#000000;stroke-width:0.8;" x="180" xlink:href="#m40fdcb84e7" y="385.516366"/>
      </g>
     </g>
     <g id="text_12">
      <!-- 100 -->
      <g transform="translate(153.9125 389.315585)scale(0.1 -0.1)">
       <use xlink:href="#DejaVuSans-49"/>
       <use x="63.623047" xlink:href="#DejaVuSans-48"/>
       <use x="127.246094" xlink:href="#DejaVuSans-48"/>
      </g>
     </g>
    </g>
    <g id="ytick_7">
     <g id="line2d_13">
      <g>
       <use style="stroke:#000000;stroke-width:0.8;" x="180" xlink:href="#m40fdcb84e7" y="214.67455"/>
      </g>
     </g>
     <g id="text_13">
      <!-- 120 -->
      <g transform="translate(153.9125 218.473768)scale(0.1 -0.1)">
       <use xlink:href="#DejaVuSans-49"/>
       <use x="63.623047" xlink:href="#DejaVuSans-50"/>
       <use x="127.246094" xlink:href="#DejaVuSans-48"/>
      </g>
     </g>
    </g>
   </g>
   <g id="patch_3">
    <path d="M 180 1281.6 
L 180 172.8 
" style="fill:none;stroke:#000000;stroke-linecap:square;stroke-linejoin:miter;stroke-width:0.8;"/>
   </g>
   <g id="patch_4">
    <path d="M 1296 1281.6 
L 1296 172.8 
" style="fill:none;stroke:#000000;stroke-linecap:square;stroke-linejoin:miter;stroke-width:0.8;"/>
   </g>
   <g id="patch_5">
    <path d="M 180 1281.6 
L 1296 1281.6 
" style="fill:none;stroke:#000000;stroke-linecap:square;stroke-linejoin:miter;stroke-width:0.8;"/>
   </g>
   <g id="patch_6">
    <path d="M 180 172.8 
L 1296 172.8 
" style="fill:none;stroke:#000000;stroke-linecap:square;stroke-linejoin:miter;stroke-width:0.8;"/>
   </g>
  </g>
 </g>
 <defs>
  <clipPath id="p5b40fad607">
   <rect height="1108.8" width="1116" x="180" y="172.8"/>
  </clipPath>
 </defs>
</svg>
