<?xml version="1.0" encoding="utf-8" standalone="no"?>
<!DOCTYPE svg PUBLIC "-//W3C//DTD SVG 1.1//EN"
  "http://www.w3.org/Graphics/SVG/1.1/DTD/svg11.dtd">
<!-- Created with matplotlib (https://matplotlib.org/) -->
<svg height="1440pt" version="1.1" viewBox="0 0 1440 1440" width="1440pt" xmlns="http://www.w3.org/2000/svg" xmlns:xlink="http://www.w3.org/1999/xlink">
 <defs>
  <style type="text/css">
*{stroke-linecap:butt;stroke-linejoin:round;}
  </style>
 </defs>
 <g id="figure_1">
  <g id="patch_1">
   <path d="M 0 1440 
L 1440 1440 
L 1440 0 
L 0 0 
z
" style="fill:#ffffff;"/>
  </g>
  <g id="axes_1">
   <g id="patch_2">
    <path d="M 180 1281.6 
L 1296 1281.6 
L 1296 172.8 
L 180 172.8 
z
" style="fill:#ffffff;"/>
   </g>
   <g id="matplotlib.axis_1">
    <g id="xtick_1"/>
    <g id="xtick_2"/>
    <g id="xtick_3"/>
    <g id="xtick_4"/>
    <g id="xtick_5"/>
    <g id="xtick_6"/>
    <g id="xtick_7"/>
    <g id="xtick_8"/>
    <g id="xtick_9"/>
    <g id="xtick_10"/>
    <g id="xtick_11"/>
    <g id="xtick_12"/>
    <g id="xtick_13"/>
    <g id="xtick_14"/>
    <g id="xtick_15"/>
    <g id="xtick_16"/>
    <g id="xtick_17"/>
    <g id="xtick_18"/>
    <g id="xtick_19"/>
    <g id="xtick_20"/>
    <g id="xtick_21"/>
   </g>
   <g id="matplotlib.axis_2">
    <g id="ytick_1">
     <g id="line2d_1">
      <defs>
       <path d="M 0 0 
L -3.5 0 
" id="m4ae40382a1" style="stroke:#000000;stroke-width:0.8;"/>
      </defs>
      <g>
       <use style="stroke:#000000;stroke-width:0.8;" x="180" xlink:href="#m4ae40382a1" y="1231.2"/>
      </g>
     </g>
     <g id="text_1">
      <!-- $\mathdefault{10^{0}}$ -->
      <defs>
       <path d="M 12.40625 8.296875 
L 28.515625 8.296875 
L 28.515625 63.921875 
L 10.984375 60.40625 
L 10.984375 69.390625 
L 28.421875 72.90625 
L 38.28125 72.90625 
L 38.28125 8.296875 
L 54.390625 8.296875 
L 54.390625 0 
L 12.40625 0 
z
" id="DejaVuSans-49"/>
       <path d="M 31.78125 66.40625 
Q 24.171875 66.40625 20.328125 58.90625 
Q 16.5 51.421875 16.5 36.375 
Q 16.5 21.390625 20.328125 13.890625 
Q 24.171875 6.390625 31.78125 6.390625 
Q 39.453125 6.390625 43.28125 13.890625 
Q 47.125 21.390625 47.125 36.375 
Q 47.125 51.421875 43.28125 58.90625 
Q 39.453125 66.40625 31.78125 66.40625 
z
M 31.78125 74.21875 
Q 44.046875 74.21875 50.515625 64.515625 
Q 56.984375 54.828125 56.984375 36.375 
Q 56.984375 17.96875 50.515625 8.265625 
Q 44.046875 -1.421875 31.78125 -1.421875 
Q 19.53125 -1.421875 13.0625 8.265625 
Q 6.59375 17.96875 6.59375 36.375 
Q 6.59375 54.828125 13.0625 64.515625 
Q 19.53125 74.21875 31.78125 74.21875 
z
" id="DejaVuSans-48"/>
      </defs>
      <g transform="translate(155.4 1234.999219)scale(0.1 -0.1)">
       <use transform="translate(0 0.765625)" xlink:href="#DejaVuSans-49"/>
       <use transform="translate(63.623047 0.765625)" xlink:href="#DejaVuSans-48"/>
       <use transform="translate(128.203125 39.046875)scale(0.7)" xlink:href="#DejaVuSans-48"/>
      </g>
     </g>
    </g>
    <g id="ytick_2">
     <g id="line2d_2">
      <g>
       <use style="stroke:#000000;stroke-width:0.8;" x="180" xlink:href="#m4ae40382a1" y="976.9945"/>
      </g>
     </g>
     <g id="text_2">
      <!-- $\mathdefault{10^{1}}$ -->
      <g transform="translate(155.4 980.793719)scale(0.1 -0.1)">
       <use transform="translate(0 0.684375)" xlink:href="#DejaVuSans-49"/>
       <use transform="translate(63.623047 0.684375)" xlink:href="#DejaVuSans-48"/>
       <use transform="translate(128.203125 38.965625)scale(0.7)" xlink:href="#DejaVuSans-49"/>
      </g>
     </g>
    </g>
    <g id="ytick_3">
     <g id="line2d_3">
      <g>
       <use style="stroke:#000000;stroke-width:0.8;" x="180" xlink:href="#m4ae40382a1" y="722.789"/>
      </g>
     </g>
     <g id="text_3">
      <!-- $\mathdefault{10^{2}}$ -->
      <defs>
       <path d="M 19.1875 8.296875 
L 53.609375 8.296875 
L 53.609375 0 
L 7.328125 0 
L 7.328125 8.296875 
Q 12.9375 14.109375 22.625 23.890625 
Q 32.328125 33.6875 34.8125 36.53125 
Q 39.546875 41.84375 41.421875 45.53125 
Q 43.3125 49.21875 43.3125 52.78125 
Q 43.3125 58.59375 39.234375 62.25 
Q 35.15625 65.921875 28.609375 65.921875 
Q 23.96875 65.921875 18.8125 64.3125 
Q 13.671875 62.703125 7.8125 59.421875 
L 7.8125 69.390625 
Q 13.765625 71.78125 18.9375 73 
Q 24.125 74.21875 28.421875 74.21875 
Q 39.75 74.21875 46.484375 68.546875 
Q 53.21875 62.890625 53.21875 53.421875 
Q 53.21875 48.921875 51.53125 44.890625 
Q 49.859375 40.875 45.40625 35.40625 
Q 44.1875 33.984375 37.640625 27.21875 
Q 31.109375 20.453125 19.1875 8.296875 
z
" id="DejaVuSans-50"/>
      </defs>
      <g transform="translate(155.4 726.588219)scale(0.1 -0.1)">
       <use transform="translate(0 0.765625)" xlink:href="#DejaVuSans-49"/>
       <use transform="translate(63.623047 0.765625)" xlink:href="#DejaVuSans-48"/>
       <use transform="translate(128.203125 39.046875)scale(0.7)" xlink:href="#DejaVuSans-50"/>
      </g>
     </g>
    </g>
    <g id="ytick_4">
     <g id="line2d_4">
      <g>
       <use style="stroke:#000000;stroke-width:0.8;" x="180" xlink:href="#m4ae40382a1" y="468.5835"/>
      </g>
     </g>
     <g id="text_4">
      <!-- $\mathdefault{10^{3}}$ -->
      <defs>
       <path d="M 40.578125 39.3125 
Q 47.65625 37.796875 51.625 33 
Q 55.609375 28.21875 55.609375 21.1875 
Q 55.609375 10.40625 48.1875 4.484375 
Q 40.765625 -1.421875 27.09375 -1.421875 
Q 22.515625 -1.421875 17.65625 -0.515625 
Q 12.796875 0.390625 7.625 2.203125 
L 7.625 11.71875 
Q 11.71875 9.328125 16.59375 8.109375 
Q 21.484375 6.890625 26.8125 6.890625 
Q 36.078125 6.890625 40.9375 10.546875 
Q 45.796875 14.203125 45.796875 21.1875 
Q 45.796875 27.640625 41.28125 31.265625 
Q 36.765625 34.90625 28.71875 34.90625 
L 20.21875 34.90625 
L 20.21875 43.015625 
L 29.109375 43.015625 
Q 36.375 43.015625 40.234375 45.921875 
Q 44.09375 48.828125 44.09375 54.296875 
Q 44.09375 59.90625 40.109375 62.90625 
Q 36.140625 65.921875 28.71875 65.921875 
Q 24.65625 65.921875 20.015625 65.03125 
Q 15.375 64.15625 9.8125 62.3125 
L 9.8125 71.09375 
Q 15.4375 72.65625 20.34375 73.4375 
Q 25.25 74.21875 29.59375 74.21875 
Q 40.828125 74.21875 47.359375 69.109375 
Q 53.90625 64.015625 53.90625 55.328125 
Q 53.90625 49.265625 50.4375 45.09375 
Q 46.96875 40.921875 40.578125 39.3125 
z
" id="DejaVuSans-51"/>
      </defs>
      <g transform="translate(155.4 472.382719)scale(0.1 -0.1)">
       <use transform="translate(0 0.765625)" xlink:href="#DejaVuSans-49"/>
       <use transform="translate(63.623047 0.765625)" xlink:href="#DejaVuSans-48"/>
       <use transform="translate(128.203125 39.046875)scale(0.7)" xlink:href="#DejaVuSans-51"/>
      </g>
     </g>
    </g>
    <g id="ytick_5">
     <g id="line2d_5">
      <g>
       <use style="stroke:#000000;stroke-width:0.8;" x="180" xlink:href="#m4ae40382a1" y="214.378"/>
      </g>
     </g>
     <g id="text_5">
      <!-- $\mathdefault{10^{4}}$ -->
      <defs>
       <path d="M 37.796875 64.3125 
L 12.890625 25.390625 
L 37.796875 25.390625 
z
M 35.203125 72.90625 
L 47.609375 72.90625 
L 47.609375 25.390625 
L 58.015625 25.390625 
L 58.015625 17.1875 
L 47.609375 17.1875 
L 47.609375 0 
L 37.796875 0 
L 37.796875 17.1875 
L 4.890625 17.1875 
L 4.890625 26.703125 
z
" id="DejaVuSans-52"/>
      </defs>
      <g transform="translate(155.4 218.177219)scale(0.1 -0.1)">
       <use transform="translate(0 0.684375)" xlink:href="#DejaVuSans-49"/>
       <use transform="translate(63.623047 0.684375)" xlink:href="#DejaVuSans-48"/>
       <use transform="translate(128.203125 38.965625)scale(0.7)" xlink:href="#DejaVuSans-52"/>
      </g>
     </g>
    </g>
    <g id="ytick_6">
     <g id="line2d_6">
      <defs>
       <path d="M 0 0 
L -2 0 
" id="m5aff6f5e89" style="stroke:#000000;stroke-width:0.6;"/>
      </defs>
      <g>
       <use style="stroke:#000000;stroke-width:0.6;" x="180" xlink:href="#m5aff6f5e89" y="1270.57693"/>
      </g>
     </g>
    </g>
    <g id="ytick_7">
     <g id="line2d_7">
      <g>
       <use style="stroke:#000000;stroke-width:0.6;" x="180" xlink:href="#m5aff6f5e89" y="1255.835058"/>
      </g>
     </g>
    </g>
    <g id="ytick_8">
     <g id="line2d_8">
      <g>
       <use style="stroke:#000000;stroke-width:0.6;" x="180" xlink:href="#m5aff6f5e89" y="1242.831806"/>
      </g>
     </g>
    </g>
    <g id="ytick_9">
     <g id="line2d_9">
      <g>
       <use style="stroke:#000000;stroke-width:0.6;" x="180" xlink:href="#m5aff6f5e89" y="1154.676519"/>
      </g>
     </g>
    </g>
    <g id="ytick_10">
     <g id="line2d_10">
      <g>
       <use style="stroke:#000000;stroke-width:0.6;" x="180" xlink:href="#m5aff6f5e89" y="1109.913153"/>
      </g>
     </g>
    </g>
    <g id="ytick_11">
     <g id="line2d_11">
      <g>
       <use style="stroke:#000000;stroke-width:0.6;" x="180" xlink:href="#m5aff6f5e89" y="1078.153039"/>
      </g>
     </g>
    </g>
    <g id="ytick_12">
     <g id="line2d_12">
      <g>
       <use style="stroke:#000000;stroke-width:0.6;" x="180" xlink:href="#m5aff6f5e89" y="1053.517981"/>
      </g>
     </g>
    </g>
    <g id="ytick_13">
     <g id="line2d_13">
      <g>
       <use style="stroke:#000000;stroke-width:0.6;" x="180" xlink:href="#m5aff6f5e89" y="1033.389672"/>
      </g>
     </g>
    </g>
    <g id="ytick_14">
     <g id="line2d_14">
      <g>
       <use style="stroke:#000000;stroke-width:0.6;" x="180" xlink:href="#m5aff6f5e89" y="1016.37143"/>
      </g>
     </g>
    </g>
    <g id="ytick_15">
     <g id="line2d_15">
      <g>
       <use style="stroke:#000000;stroke-width:0.6;" x="180" xlink:href="#m5aff6f5e89" y="1001.629558"/>
      </g>
     </g>
    </g>
    <g id="ytick_16">
     <g id="line2d_16">
      <g>
       <use style="stroke:#000000;stroke-width:0.6;" x="180" xlink:href="#m5aff6f5e89" y="988.626306"/>
      </g>
     </g>
    </g>
    <g id="ytick_17">
     <g id="line2d_17">
      <g>
       <use style="stroke:#000000;stroke-width:0.6;" x="180" xlink:href="#m5aff6f5e89" y="900.47102"/>
      </g>
     </g>
    </g>
    <g id="ytick_18">
     <g id="line2d_18">
      <g>
       <use style="stroke:#000000;stroke-width:0.6;" x="180" xlink:href="#m5aff6f5e89" y="855.707653"/>
      </g>
     </g>
    </g>
    <g id="ytick_19">
     <g id="line2d_19">
      <g>
       <use style="stroke:#000000;stroke-width:0.6;" x="180" xlink:href="#m5aff6f5e89" y="823.947539"/>
      </g>
     </g>
    </g>
    <g id="ytick_20">
     <g id="line2d_20">
      <g>
       <use style="stroke:#000000;stroke-width:0.6;" x="180" xlink:href="#m5aff6f5e89" y="799.312481"/>
      </g>
     </g>
    </g>
    <g id="ytick_21">
     <g id="line2d_21">
      <g>
       <use style="stroke:#000000;stroke-width:0.6;" x="180" xlink:href="#m5aff6f5e89" y="779.184173"/>
      </g>
     </g>
    </g>
    <g id="ytick_22">
     <g id="line2d_22">
      <g>
       <use style="stroke:#000000;stroke-width:0.6;" x="180" xlink:href="#m5aff6f5e89" y="762.16593"/>
      </g>
     </g>
    </g>
    <g id="ytick_23">
     <g id="line2d_23">
      <g>
       <use style="stroke:#000000;stroke-width:0.6;" x="180" xlink:href="#m5aff6f5e89" y="747.424059"/>
      </g>
     </g>
    </g>
    <g id="ytick_24">
     <g id="line2d_24">
      <g>
       <use style="stroke:#000000;stroke-width:0.6;" x="180" xlink:href="#m5aff6f5e89" y="734.420806"/>
      </g>
     </g>
    </g>
    <g id="ytick_25">
     <g id="line2d_25">
      <g>
       <use style="stroke:#000000;stroke-width:0.6;" x="180" xlink:href="#m5aff6f5e89" y="646.26552"/>
      </g>
     </g>
    </g>
    <g id="ytick_26">
     <g id="line2d_26">
      <g>
       <use style="stroke:#000000;stroke-width:0.6;" x="180" xlink:href="#m5aff6f5e89" y="601.502153"/>
      </g>
     </g>
    </g>
    <g id="ytick_27">
     <g id="line2d_27">
      <g>
       <use style="stroke:#000000;stroke-width:0.6;" x="180" xlink:href="#m5aff6f5e89" y="569.742039"/>
      </g>
     </g>
    </g>
    <g id="ytick_28">
     <g id="line2d_28">
      <g>
       <use style="stroke:#000000;stroke-width:0.6;" x="180" xlink:href="#m5aff6f5e89" y="545.106981"/>
      </g>
     </g>
    </g>
    <g id="ytick_29">
     <g id="line2d_29">
      <g>
       <use style="stroke:#000000;stroke-width:0.6;" x="180" xlink:href="#m5aff6f5e89" y="524.978673"/>
      </g>
     </g>
    </g>
    <g id="ytick_30">
     <g id="line2d_30">
      <g>
       <use style="stroke:#000000;stroke-width:0.6;" x="180" xlink:href="#m5aff6f5e89" y="507.96043"/>
      </g>
     </g>
    </g>
    <g id="ytick_31">
     <g id="line2d_31">
      <g>
       <use style="stroke:#000000;stroke-width:0.6;" x="180" xlink:href="#m5aff6f5e89" y="493.218559"/>
      </g>
     </g>
    </g>
    <g id="ytick_32">
     <g id="line2d_32">
      <g>
       <use style="stroke:#000000;stroke-width:0.6;" x="180" xlink:href="#m5aff6f5e89" y="480.215306"/>
      </g>
     </g>
    </g>
    <g id="ytick_33">
     <g id="line2d_33">
      <g>
       <use style="stroke:#000000;stroke-width:0.6;" x="180" xlink:href="#m5aff6f5e89" y="392.06002"/>
      </g>
     </g>
    </g>
    <g id="ytick_34">
     <g id="line2d_34">
      <g>
       <use style="stroke:#000000;stroke-width:0.6;" x="180" xlink:href="#m5aff6f5e89" y="347.296653"/>
      </g>
     </g>
    </g>
    <g id="ytick_35">
     <g id="line2d_35">
      <g>
       <use style="stroke:#000000;stroke-width:0.6;" x="180" xlink:href="#m5aff6f5e89" y="315.536539"/>
      </g>
     </g>
    </g>
    <g id="ytick_36">
     <g id="line2d_36">
      <g>
       <use style="stroke:#000000;stroke-width:0.6;" x="180" xlink:href="#m5aff6f5e89" y="290.901481"/>
      </g>
     </g>
    </g>
    <g id="ytick_37">
     <g id="line2d_37">
      <g>
       <use style="stroke:#000000;stroke-width:0.6;" x="180" xlink:href="#m5aff6f5e89" y="270.773173"/>
      </g>
     </g>
    </g>
    <g id="ytick_38">
     <g id="line2d_38">
      <g>
       <use style="stroke:#000000;stroke-width:0.6;" x="180" xlink:href="#m5aff6f5e89" y="253.754931"/>
      </g>
     </g>
    </g>
    <g id="ytick_39">
     <g id="line2d_39">
      <g>
       <use style="stroke:#000000;stroke-width:0.6;" x="180" xlink:href="#m5aff6f5e89" y="239.013059"/>
      </g>
     </g>
    </g>
    <g id="ytick_40">
     <g id="line2d_40">
      <g>
       <use style="stroke:#000000;stroke-width:0.6;" x="180" xlink:href="#m5aff6f5e89" y="226.009806"/>
      </g>
     </g>
    </g>
   </g>
   <g id="line2d_41">
    <path clip-path="url(#pd7b9a51c60)" style="fill:none;stroke:#1f77b4;stroke-linecap:square;stroke-width:1.5;"/>
   </g>
   <g id="line2d_42">
    <path clip-path="url(#pd7b9a51c60)" d="M -1 1154.712268 
L 230.727273 1154.676519 
" style="fill:none;stroke:#1f77b4;stroke-linecap:square;stroke-width:1.5;"/>
   </g>
   <g id="line2d_43">
    <path clip-path="url(#pd7b9a51c60)" d="M -1 1154.712268 
L 230.727273 1154.676519 
L 380.047755 1078.153039 
L 467.394638 1001.629558 
L 529.368237 925.106078 
L 577.438696 1053.517981 
L 616.71512 976.9945 
L 649.922864 1109.913153 
" style="fill:none;stroke:#1f77b4;stroke-linecap:square;stroke-width:1.5;"/>
   </g>
   <g id="line2d_44">
    <path clip-path="url(#pd7b9a51c60)" d="M -1 1154.712268 
L 230.727273 1154.676519 
L 380.047755 1078.153039 
" style="fill:none;stroke:#1f77b4;stroke-linecap:square;stroke-width:1.5;"/>
   </g>
   <g id="line2d_45">
    <path clip-path="url(#pd7b9a51c60)" d="M -1 1154.712268 
L 230.727273 1154.676519 
L 380.047755 1078.153039 
L 467.394638 1001.629558 
L 529.368237 925.106078 
L 577.438696 1053.517981 
" style="fill:none;stroke:#1f77b4;stroke-linecap:square;stroke-width:1.5;"/>
   </g>
   <g id="line2d_46">
    <path clip-path="url(#pd7b9a51c60)" d="M -1 1154.712268 
L 230.727273 1154.676519 
L 380.047755 1078.153039 
L 467.394638 1001.629558 
L 529.368237 925.106078 
L 577.438696 1053.517981 
L 616.71512 976.9945 
L 649.922864 1109.913153 
L 678.68872 1033.389672 
" style="fill:none;stroke:#1f77b4;stroke-linecap:square;stroke-width:1.5;"/>
   </g>
   <g id="line2d_47">
    <path clip-path="url(#pd7b9a51c60)" d="M -1 1154.712268 
L 230.727273 1154.676519 
L 380.047755 1078.153039 
L 467.394638 1001.629558 
L 529.368237 925.106078 
L 577.438696 1053.517981 
L 616.71512 976.9945 
L 649.922864 900.47102 
L 678.68872 823.947539 
L 704.062003 948.029473 
L 726.759178 871.505993 
L 747.291271 794.982512 
L 766.035603 918.413117 
L 783.278716 841.889636 
L 799.243346 966.472252 
L 814.106061 889.948771 
L 828.009202 1016.37143 
" style="fill:none;stroke:#1f77b4;stroke-linecap:square;stroke-width:1.5;"/>
   </g>
   <g id="line2d_48">
    <path clip-path="url(#pd7b9a51c60)" d="M -1 1154.712268 
L 230.727273 1154.676519 
L 380.047755 1078.153039 
L 467.394638 1001.629558 
" style="fill:none;stroke:#1f77b4;stroke-linecap:square;stroke-width:1.5;"/>
   </g>
   <g id="line2d_49">
    <path clip-path="url(#pd7b9a51c60)" d="M -1 1154.712268 
L 230.727273 1154.676519 
L 380.047755 1078.153039 
L 467.394638 1001.629558 
L 529.368237 925.106078 
L 577.438696 1053.517981 
L 616.71512 976.9945 
L 649.922864 900.47102 
L 678.68872 823.947539 
L 704.062003 948.029473 
L 726.759178 871.505993 
L 747.291271 794.982512 
L 766.035603 918.413117 
L 783.278716 841.889636 
L 799.243346 966.472252 
L 814.106061 889.948771 
L 828.009202 1016.37143 
L 841.069196 939.84795 
L 853.382485 863.324469 
L 865.029858 988.626306 
" style="fill:none;stroke:#1f77b4;stroke-linecap:square;stroke-width:1.5;"/>
   </g>
   <g id="line2d_50">
    <path clip-path="url(#pd7b9a51c60)" d="M -1 1154.712268 
L 230.727273 1154.676519 
L 380.047755 1078.153039 
L 467.394638 1001.629558 
L 529.368237 925.106078 
L 577.438696 1053.517981 
L 616.71512 976.9945 
" style="fill:none;stroke:#1f77b4;stroke-linecap:square;stroke-width:1.5;"/>
   </g>
   <g id="line2d_51">
    <path clip-path="url(#pd7b9a51c60)" d="M -1 1154.712268 
L 230.727273 1154.676519 
L 380.047755 1078.153039 
L 467.394638 1001.629558 
L 529.368237 925.106078 
L 577.438696 1053.517981 
L 616.71512 976.9945 
L 649.922864 900.47102 
L 678.68872 823.947539 
L 704.062003 948.029473 
L 726.759178 871.505993 
L 747.291271 794.982512 
L 766.035603 918.413117 
L 783.278716 841.889636 
L 799.243346 966.472252 
" style="fill:none;stroke:#1f77b4;stroke-linecap:square;stroke-width:1.5;"/>
   </g>
   <g id="line2d_52">
    <path clip-path="url(#pd7b9a51c60)" d="M -1 1154.712268 
L 230.727273 1154.676519 
L 380.047755 1078.153039 
L 467.394638 1001.629558 
L 529.368237 925.106078 
L 577.438696 1053.517981 
L 616.71512 976.9945 
L 649.922864 1109.913153 
L 678.68872 1033.389672 
L 704.062003 956.866192 
" style="fill:none;stroke:#1f77b4;stroke-linecap:square;stroke-width:1.5;"/>
   </g>
   <g id="line2d_53">
    <path clip-path="url(#pd7b9a51c60)" d="M -1 1154.712268 
L 230.727273 1154.676519 
L 380.047755 1078.153039 
L 467.394638 1001.629558 
L 529.368237 925.106078 
L 577.438696 1053.517981 
L 616.71512 976.9945 
L 649.922864 900.47102 
L 678.68872 823.947539 
L 704.062003 948.029473 
" style="fill:none;stroke:#1f77b4;stroke-linecap:square;stroke-width:1.5;"/>
   </g>
   <g id="line2d_54">
    <path clip-path="url(#pd7b9a51c60)" d="M -1 1154.712268 
L 230.727273 1154.676519 
L 380.047755 1078.153039 
L 467.394638 1001.629558 
L 529.368237 925.106078 
L 577.438696 1053.517981 
L 616.71512 976.9945 
L 649.922864 900.47102 
L 678.68872 823.947539 
L 704.062003 948.029473 
L 726.759178 871.505993 
L 747.291271 794.982512 
L 766.035603 918.413117 
L 783.278716 841.889636 
L 799.243346 966.472252 
L 814.106061 889.948771 
L 828.009202 1016.37143 
L 841.069196 939.84795 
" style="fill:none;stroke:#1f77b4;stroke-linecap:square;stroke-width:1.5;"/>
   </g>
   <g id="line2d_55">
    <path clip-path="url(#pd7b9a51c60)" d="M -1 1154.712268 
L 230.727273 1154.676519 
L 380.047755 1078.153039 
L 467.394638 1001.629558 
L 529.368237 925.106078 
L 577.438696 1053.517981 
L 616.71512 976.9945 
L 649.922864 900.47102 
L 678.68872 823.947539 
L 704.062003 747.424059 
L 726.759178 670.900578 
L 747.291271 792.879591 
L 766.035603 716.35611 
L 783.278716 838.689411 
L 799.243346 762.16593 
L 814.106061 885.041295 
L 828.009202 808.517814 
L 841.069196 932.231134 
" style="fill:none;stroke:#1f77b4;stroke-linecap:square;stroke-width:1.5;"/>
   </g>
   <g id="line2d_56">
    <path clip-path="url(#pd7b9a51c60)" d="M -1 1154.712268 
L 230.727273 1154.676519 
L 380.047755 1078.153039 
L 467.394638 1001.629558 
L 529.368237 925.106078 
" style="fill:none;stroke:#1f77b4;stroke-linecap:square;stroke-width:1.5;"/>
   </g>
   <g id="line2d_57">
    <path clip-path="url(#pd7b9a51c60)" d="M -1 1154.712268 
L 230.727273 1154.676519 
L 380.047755 1078.153039 
L 467.394638 1001.629558 
L 529.368237 925.106078 
L 577.438696 1053.517981 
L 616.71512 976.9945 
L 649.922864 900.47102 
L 678.68872 823.947539 
L 704.062003 948.029473 
L 726.759178 871.505993 
L 747.291271 794.982512 
L 766.035603 918.413117 
" style="fill:none;stroke:#1f77b4;stroke-linecap:square;stroke-width:1.5;"/>
   </g>
   <g id="line2d_58">
    <path clip-path="url(#pd7b9a51c60)" d="M -1 1154.712268 
L 230.727273 1154.676519 
L 380.047755 1078.153039 
L 467.394638 1001.629558 
L 529.368237 925.106078 
L 577.438696 1053.517981 
L 616.71512 976.9945 
L 649.922864 900.47102 
L 678.68872 823.947539 
L 704.062003 948.029473 
L 726.759178 871.505993 
L 747.291271 794.982512 
L 766.035603 918.413117 
L 783.278716 841.889636 
L 799.243346 966.472252 
L 814.106061 889.948771 
L 828.009202 1016.37143 
L 841.069196 939.84795 
L 853.382485 863.324469 
L 865.029858 988.626306 
L 876.079661 912.102825 
" style="fill:none;stroke:#1f77b4;stroke-linecap:square;stroke-width:1.5;"/>
   </g>
   <g id="line2d_59">
    <path clip-path="url(#pd7b9a51c60)" d="M -1 1154.712268 
L 230.727273 1154.676519 
L 380.047755 1078.153039 
L 467.394638 1001.629558 
L 529.368237 925.106078 
L 577.438696 1053.517981 
L 616.71512 976.9945 
L 649.922864 900.47102 
L 678.68872 823.947539 
L 704.062003 948.029473 
L 726.759178 871.505993 
L 747.291271 794.982512 
L 766.035603 918.413117 
L 783.278716 841.889636 
L 799.243346 966.472252 
L 814.106061 889.948771 
L 828.009202 813.425291 
L 841.069196 736.90181 
L 853.382485 859.450386 
L 865.029858 782.926905 
L 876.079661 906.133802 
" style="fill:none;stroke:#1f77b4;stroke-linecap:square;stroke-width:1.5;"/>
   </g>
   <g id="line2d_60">
    <path clip-path="url(#pd7b9a51c60)" d="M -1 1154.712268 
L 230.727273 1154.676519 
L 380.047755 1078.153039 
L 467.394638 1001.629558 
L 529.368237 925.106078 
L 577.438696 1053.517981 
L 616.71512 976.9945 
L 649.922864 900.47102 
" style="fill:none;stroke:#1f77b4;stroke-linecap:square;stroke-width:1.5;"/>
   </g>
   <g id="line2d_61">
    <path clip-path="url(#pd7b9a51c60)" d="M -1 1154.712268 
L 230.727273 1154.676519 
L 380.047755 1078.153039 
L 467.394638 1001.629558 
L 529.368237 925.106078 
L 577.438696 848.582597 
L 616.71512 772.059117 
L 649.922864 895.084583 
" style="fill:none;stroke:#1f77b4;stroke-linecap:square;stroke-width:1.5;"/>
   </g>
   <g id="line2d_62">
    <path clip-path="url(#pd7b9a51c60)" d="M -1 1154.712268 
L 230.727273 1154.676519 
L 380.047755 1078.153039 
L 467.394638 1001.629558 
L 529.368237 925.106078 
L 577.438696 1053.517981 
L 616.71512 976.9945 
L 649.922864 900.47102 
L 678.68872 823.947539 
L 704.062003 948.029473 
L 726.759178 871.505993 
L 747.291271 794.982512 
L 766.035603 918.413117 
L 783.278716 841.889636 
L 799.243346 966.472252 
L 814.106061 889.948771 
" style="fill:none;stroke:#1f77b4;stroke-linecap:square;stroke-width:1.5;"/>
   </g>
   <g id="line2d_63">
    <path clip-path="url(#pd7b9a51c60)" d="M -1 1154.712268 
L 230.727273 1154.676519 
L 380.047755 1078.153039 
L 467.394638 1001.629558 
L 529.368237 925.106078 
L 577.438696 1053.517981 
L 616.71512 976.9945 
L 649.922864 900.47102 
L 678.68872 823.947539 
L 704.062003 747.424059 
L 726.759178 670.900578 
L 747.291271 792.879591 
L 766.035603 716.35611 
L 783.278716 838.689411 
L 799.243346 762.16593 
L 814.106061 885.041295 
" style="fill:none;stroke:#1f77b4;stroke-linecap:square;stroke-width:1.5;"/>
   </g>
   <g id="line2d_64">
    <path clip-path="url(#pd7b9a51c60)" d="M -1 1154.712268 
L 230.727273 1154.676519 
L 380.047755 1078.153039 
L 467.394638 1001.629558 
L 529.368237 925.106078 
L 577.438696 1053.517981 
L 616.71512 976.9945 
L 649.922864 1109.913153 
L 678.68872 1033.389672 
L 704.062003 956.866192 
L 726.759178 880.342711 
" style="fill:none;stroke:#1f77b4;stroke-linecap:square;stroke-width:1.5;"/>
   </g>
   <g id="line2d_65">
    <path clip-path="url(#pd7b9a51c60)" d="M -1 1154.712268 
L 230.727273 1154.676519 
L 380.047755 1078.153039 
L 467.394638 1001.629558 
L 529.368237 925.106078 
L 577.438696 1053.517981 
L 616.71512 976.9945 
L 649.922864 900.47102 
L 678.68872 823.947539 
L 704.062003 948.029473 
L 726.759178 871.505993 
L 747.291271 794.982512 
L 766.035603 918.413117 
L 783.278716 841.889636 
L 799.243346 966.472252 
L 814.106061 889.948771 
L 828.009202 813.425291 
L 841.069196 736.90181 
L 853.382485 859.450386 
L 865.029858 782.926905 
L 876.079661 906.133802 
L 886.590229 829.610321 
L 896.611753 753.086841 
L 906.187726 875.835961 
" style="fill:none;stroke:#1f77b4;stroke-linecap:square;stroke-width:1.5;"/>
   </g>
   <g id="line2d_66">
    <path clip-path="url(#pd7b9a51c60)" d="M -1 1154.712268 
L 230.727273 1154.676519 
L 380.047755 1078.153039 
L 467.394638 1001.629558 
L 529.368237 925.106078 
L 577.438696 1053.517981 
L 616.71512 976.9945 
L 649.922864 900.47102 
L 678.68872 823.947539 
L 704.062003 948.029473 
L 726.759178 871.505993 
" style="fill:none;stroke:#1f77b4;stroke-linecap:square;stroke-width:1.5;"/>
   </g>
   <g id="line2d_67">
    <path clip-path="url(#pd7b9a51c60)" d="M -1 1154.712268 
L 230.727273 1154.676519 
L 380.047755 1078.153039 
L 467.394638 1001.629558 
L 529.368237 925.106078 
L 577.438696 1053.517981 
L 616.71512 976.9945 
L 649.922864 900.47102 
L 678.68872 823.947539 
L 704.062003 747.424059 
L 726.759178 670.900578 
L 747.291271 792.879591 
L 766.035603 716.35611 
L 783.278716 838.689411 
L 799.243346 762.16593 
L 814.106061 885.041295 
L 828.009202 808.517814 
L 841.069196 731.994334 
L 853.382485 655.470853 
L 865.029858 777.359337 
L 876.079661 700.835856 
L 886.590229 624.312376 
L 896.611753 547.788895 
L 906.187726 471.265415 
L 915.356085 592.665435 
L 924.150119 516.141954 
L 932.599199 439.618473 
L 940.729368 560.990276 
L 948.563829 484.466796 
L 956.123338 407.943315 
L 963.426543 529.293922 
L 970.490256 452.770442 
L 977.329685 376.246961 
L 983.958636 299.723481 
L 990.389678 223.2 
L 996.634287 344.498806 
L 1002.702968 267.975326 
L 1008.605362 389.280114 
L 1014.35034 312.756633 
L 1019.946082 434.070397 
L 1025.400143 357.546917 
L 1030.719522 478.874152 
L 1035.910711 402.350671 
L 1040.979743 325.82719 
L 1045.932235 249.30371 
L 1050.773426 370.605706 
L 1055.508208 294.082226 
L 1060.141159 415.391801 
L 1064.676567 338.86832 
L 1069.118455 460.189267 
L 1073.470601 383.665787 
L 1077.736561 505.003804 
L 1081.919681 428.480324 
L 1086.023118 549.843971 
L 1090.049851 473.32049 
L 1094.002694 594.722638 
L 1097.884311 518.199157 
L 1101.697223 441.675677 
L 1105.443821 563.049078 
L 1109.12637 486.525598 
L 1112.747026 607.942404 
L 1116.307833 531.418923 
L 1119.810738 454.895442 
L 1123.257594 576.279859 
L 1126.650167 499.756379 
L 1129.99014 621.189742 
L 1133.279118 544.666262 
L 1136.518637 666.173248 
L 1139.710161 589.649768 
L 1142.855091 513.126287 
L 1145.954769 436.602807 
L 1149.010479 557.97232 
L 1152.02345 481.448839 
L 1154.994862 404.925358 
L 1157.925845 526.274245 
L 1160.817484 449.750765 
L 1163.670823 571.130737 
L 1166.486862 494.607257 
L 1169.266564 616.033939 
L 1172.010855 539.510459 
L 1174.720625 661.007392 
L 1177.396733 584.483911 
L 1180.040005 507.96043 
L 1182.651236 629.405105 
L 1185.231194 552.881624 
L 1187.780619 674.405636 
L 1190.300226 597.882155 
L 1192.790703 719.525707 
L 1195.252718 643.002227 
L 1197.686912 566.478746 
L 1200.093909 688.03388 
L 1202.474308 611.5104 
L 1204.828691 733.200904 
L 1207.157621 656.677423 
L 1209.461642 580.153942 
L 1211.741281 701.744504 
L 1213.99705 625.221023 
L 1216.229442 548.697543 
L 1218.438937 670.212725 
L 1220.626001 593.689244 
L 1222.791084 715.319482 
L 1224.934623 638.796002 
L 1227.057043 760.599946 
L 1229.158757 684.076466 
L 1231.240163 806.143528 
L 1233.301652 729.620048 
L 1235.3436 852.087655 
L 1237.366375 775.564175 
L 1239.370333 699.040694 
L 1241.355821 821.221473 
L 1243.323176 744.697993 
L 1245.272727 867.339459 
" style="fill:none;stroke:#1f77b4;stroke-linecap:square;stroke-width:1.5;"/>
   </g>
   <g id="line2d_68">
    <path clip-path="url(#pd7b9a51c60)" d="M -1 1154.712268 
L 230.727273 1154.676519 
L 380.047755 1078.153039 
L 467.394638 1001.629558 
L 529.368237 925.106078 
L 577.438696 1053.517981 
L 616.71512 976.9945 
L 649.922864 900.47102 
L 678.68872 823.947539 
L 704.062003 948.029473 
L 726.759178 871.505993 
L 747.291271 794.982512 
L 766.035603 918.413117 
L 783.278716 841.889636 
L 799.243346 966.472252 
L 814.106061 889.948771 
L 828.009202 1016.37143 
L 841.069196 939.84795 
L 853.382485 863.324469 
" style="fill:none;stroke:#1f77b4;stroke-linecap:square;stroke-width:1.5;"/>
   </g>
   <g id="line2d_69">
    <path clip-path="url(#pd7b9a51c60)" d="M -1 1154.712268 
L 230.727273 1154.676519 
L 380.047755 1078.153039 
L 467.394638 1001.629558 
L 529.368237 925.106078 
L 577.438696 1053.517981 
L 616.71512 976.9945 
L 649.922864 900.47102 
L 678.68872 823.947539 
L 704.062003 948.029473 
L 726.759178 871.505993 
L 747.291271 794.982512 
L 766.035603 918.413117 
L 783.278716 841.889636 
L 799.243346 966.472252 
L 814.106061 889.948771 
L 828.009202 813.425291 
L 841.069196 736.90181 
L 853.382485 859.450386 
" style="fill:none;stroke:#1f77b4;stroke-linecap:square;stroke-width:1.5;"/>
   </g>
   <g id="line2d_70">
    <path clip-path="url(#pd7b9a51c60)" d="M -1 1154.712268 
L 230.727273 1154.676519 
L 380.047755 1078.153039 
L 467.394638 1001.629558 
L 529.368237 925.106078 
L 577.438696 1053.517981 
L 616.71512 976.9945 
L 649.922864 900.47102 
L 678.68872 823.947539 
L 704.062003 747.424059 
L 726.759178 670.900578 
L 747.291271 792.879591 
L 766.035603 716.35611 
L 783.278716 838.689411 
L 799.243346 762.16593 
L 814.106061 885.041295 
L 828.009202 808.517814 
L 841.069196 932.231134 
L 853.382485 855.707653 
" style="fill:none;stroke:#1f77b4;stroke-linecap:square;stroke-width:1.5;"/>
   </g>
   <g id="patch_3">
    <path d="M 180 1281.6 
L 180 172.8 
" style="fill:none;stroke:#000000;stroke-linecap:square;stroke-linejoin:miter;stroke-width:0.8;"/>
   </g>
   <g id="patch_4">
    <path d="M 1296 1281.6 
L 1296 172.8 
" style="fill:none;stroke:#000000;stroke-linecap:square;stroke-linejoin:miter;stroke-width:0.8;"/>
   </g>
   <g id="patch_5">
    <path d="M 180 1281.6 
L 1296 1281.6 
" style="fill:none;stroke:#000000;stroke-linecap:square;stroke-linejoin:miter;stroke-width:0.8;"/>
   </g>
   <g id="patch_6">
    <path d="M 180 172.8 
L 1296 172.8 
" style="fill:none;stroke:#000000;stroke-linecap:square;stroke-linejoin:miter;stroke-width:0.8;"/>
   </g>
  </g>
 </g>
 <defs>
  <clipPath id="pd7b9a51c60">
   <rect height="1108.8" width="1116" x="180" y="172.8"/>
  </clipPath>
 </defs>
</svg>
