<?xml version="1.0" encoding="utf-8" standalone="no"?>
<!DOCTYPE svg PUBLIC "-//W3C//DTD SVG 1.1//EN"
  "http://www.w3.org/Graphics/SVG/1.1/DTD/svg11.dtd">
<!-- Created with matplotlib (https://matplotlib.org/) -->
<svg height="1440pt" version="1.1" viewBox="0 0 1440 1440" width="1440pt" xmlns="http://www.w3.org/2000/svg" xmlns:xlink="http://www.w3.org/1999/xlink">
 <defs>
  <style type="text/css">
*{stroke-linecap:butt;stroke-linejoin:round;}
  </style>
 </defs>
 <g id="figure_1">
  <g id="patch_1">
   <path d="M 0 1440 
L 1440 1440 
L 1440 0 
L 0 0 
z
" style="fill:#ffffff;"/>
  </g>
  <g id="axes_1">
   <g id="patch_2">
    <path d="M 180 1281.6 
L 1296 1281.6 
L 1296 172.8 
L 180 172.8 
z
" style="fill:#ffffff;"/>
   </g>
   <g id="matplotlib.axis_1">
    <g id="xtick_1"/>
    <g id="xtick_2"/>
    <g id="xtick_3"/>
    <g id="xtick_4"/>
    <g id="xtick_5"/>
    <g id="xtick_6"/>
    <g id="xtick_7"/>
    <g id="xtick_8"/>
    <g id="xtick_9"/>
   </g>
   <g id="matplotlib.axis_2">
    <g id="ytick_1">
     <g id="line2d_1">
      <defs>
       <path d="M 0 0 
L -3.5 0 
" id="m3cfd52b70d" style="stroke:#000000;stroke-width:0.8;"/>
      </defs>
      <g>
       <use style="stroke:#000000;stroke-width:0.8;" x="180" xlink:href="#m3cfd52b70d" y="1237.539623"/>
      </g>
     </g>
     <g id="text_1">
      <!-- 0 -->
      <defs>
       <path d="M 31.78125 66.40625 
Q 24.171875 66.40625 20.328125 58.90625 
Q 16.5 51.421875 16.5 36.375 
Q 16.5 21.390625 20.328125 13.890625 
Q 24.171875 6.390625 31.78125 6.390625 
Q 39.453125 6.390625 43.28125 13.890625 
Q 47.125 21.390625 47.125 36.375 
Q 47.125 51.421875 43.28125 58.90625 
Q 39.453125 66.40625 31.78125 66.40625 
z
M 31.78125 74.21875 
Q 44.046875 74.21875 50.515625 64.515625 
Q 56.984375 54.828125 56.984375 36.375 
Q 56.984375 17.96875 50.515625 8.265625 
Q 44.046875 -1.421875 31.78125 -1.421875 
Q 19.53125 -1.421875 13.0625 8.265625 
Q 6.59375 17.96875 6.59375 36.375 
Q 6.59375 54.828125 13.0625 64.515625 
Q 19.53125 74.21875 31.78125 74.21875 
z
" id="DejaVuSans-48"/>
      </defs>
      <g transform="translate(166.6375 1241.338841)scale(0.1 -0.1)">
       <use xlink:href="#DejaVuSans-48"/>
      </g>
     </g>
    </g>
    <g id="ytick_2">
     <g id="line2d_2">
      <g>
       <use style="stroke:#000000;stroke-width:0.8;" x="180" xlink:href="#m3cfd52b70d" y="1110.74717"/>
      </g>
     </g>
     <g id="text_2">
      <!-- 20 -->
      <defs>
       <path d="M 19.1875 8.296875 
L 53.609375 8.296875 
L 53.609375 0 
L 7.328125 0 
L 7.328125 8.296875 
Q 12.9375 14.109375 22.625 23.890625 
Q 32.328125 33.6875 34.8125 36.53125 
Q 39.546875 41.84375 41.421875 45.53125 
Q 43.3125 49.21875 43.3125 52.78125 
Q 43.3125 58.59375 39.234375 62.25 
Q 35.15625 65.921875 28.609375 65.921875 
Q 23.96875 65.921875 18.8125 64.3125 
Q 13.671875 62.703125 7.8125 59.421875 
L 7.8125 69.390625 
Q 13.765625 71.78125 18.9375 73 
Q 24.125 74.21875 28.421875 74.21875 
Q 39.75 74.21875 46.484375 68.546875 
Q 53.21875 62.890625 53.21875 53.421875 
Q 53.21875 48.921875 51.53125 44.890625 
Q 49.859375 40.875 45.40625 35.40625 
Q 44.1875 33.984375 37.640625 27.21875 
Q 31.109375 20.453125 19.1875 8.296875 
z
" id="DejaVuSans-50"/>
      </defs>
      <g transform="translate(160.275 1114.546389)scale(0.1 -0.1)">
       <use xlink:href="#DejaVuSans-50"/>
       <use x="63.623047" xlink:href="#DejaVuSans-48"/>
      </g>
     </g>
    </g>
    <g id="ytick_3">
     <g id="line2d_3">
      <g>
       <use style="stroke:#000000;stroke-width:0.8;" x="180" xlink:href="#m3cfd52b70d" y="983.954717"/>
      </g>
     </g>
     <g id="text_3">
      <!-- 40 -->
      <defs>
       <path d="M 37.796875 64.3125 
L 12.890625 25.390625 
L 37.796875 25.390625 
z
M 35.203125 72.90625 
L 47.609375 72.90625 
L 47.609375 25.390625 
L 58.015625 25.390625 
L 58.015625 17.1875 
L 47.609375 17.1875 
L 47.609375 0 
L 37.796875 0 
L 37.796875 17.1875 
L 4.890625 17.1875 
L 4.890625 26.703125 
z
" id="DejaVuSans-52"/>
      </defs>
      <g transform="translate(160.275 987.753936)scale(0.1 -0.1)">
       <use xlink:href="#DejaVuSans-52"/>
       <use x="63.623047" xlink:href="#DejaVuSans-48"/>
      </g>
     </g>
    </g>
    <g id="ytick_4">
     <g id="line2d_4">
      <g>
       <use style="stroke:#000000;stroke-width:0.8;" x="180" xlink:href="#m3cfd52b70d" y="857.162264"/>
      </g>
     </g>
     <g id="text_4">
      <!-- 60 -->
      <defs>
       <path d="M 33.015625 40.375 
Q 26.375 40.375 22.484375 35.828125 
Q 18.609375 31.296875 18.609375 23.390625 
Q 18.609375 15.53125 22.484375 10.953125 
Q 26.375 6.390625 33.015625 6.390625 
Q 39.65625 6.390625 43.53125 10.953125 
Q 47.40625 15.53125 47.40625 23.390625 
Q 47.40625 31.296875 43.53125 35.828125 
Q 39.65625 40.375 33.015625 40.375 
z
M 52.59375 71.296875 
L 52.59375 62.3125 
Q 48.875 64.0625 45.09375 64.984375 
Q 41.3125 65.921875 37.59375 65.921875 
Q 27.828125 65.921875 22.671875 59.328125 
Q 17.53125 52.734375 16.796875 39.40625 
Q 19.671875 43.65625 24.015625 45.921875 
Q 28.375 48.1875 33.59375 48.1875 
Q 44.578125 48.1875 50.953125 41.515625 
Q 57.328125 34.859375 57.328125 23.390625 
Q 57.328125 12.15625 50.6875 5.359375 
Q 44.046875 -1.421875 33.015625 -1.421875 
Q 20.359375 -1.421875 13.671875 8.265625 
Q 6.984375 17.96875 6.984375 36.375 
Q 6.984375 53.65625 15.1875 63.9375 
Q 23.390625 74.21875 37.203125 74.21875 
Q 40.921875 74.21875 44.703125 73.484375 
Q 48.484375 72.75 52.59375 71.296875 
z
" id="DejaVuSans-54"/>
      </defs>
      <g transform="translate(160.275 860.961483)scale(0.1 -0.1)">
       <use xlink:href="#DejaVuSans-54"/>
       <use x="63.623047" xlink:href="#DejaVuSans-48"/>
      </g>
     </g>
    </g>
    <g id="ytick_5">
     <g id="line2d_5">
      <g>
       <use style="stroke:#000000;stroke-width:0.8;" x="180" xlink:href="#m3cfd52b70d" y="730.369811"/>
      </g>
     </g>
     <g id="text_5">
      <!-- 80 -->
      <defs>
       <path d="M 31.78125 34.625 
Q 24.75 34.625 20.71875 30.859375 
Q 16.703125 27.09375 16.703125 20.515625 
Q 16.703125 13.921875 20.71875 10.15625 
Q 24.75 6.390625 31.78125 6.390625 
Q 38.8125 6.390625 42.859375 10.171875 
Q 46.921875 13.96875 46.921875 20.515625 
Q 46.921875 27.09375 42.890625 30.859375 
Q 38.875 34.625 31.78125 34.625 
z
M 21.921875 38.8125 
Q 15.578125 40.375 12.03125 44.71875 
Q 8.5 49.078125 8.5 55.328125 
Q 8.5 64.0625 14.71875 69.140625 
Q 20.953125 74.21875 31.78125 74.21875 
Q 42.671875 74.21875 48.875 69.140625 
Q 55.078125 64.0625 55.078125 55.328125 
Q 55.078125 49.078125 51.53125 44.71875 
Q 48 40.375 41.703125 38.8125 
Q 48.828125 37.15625 52.796875 32.3125 
Q 56.78125 27.484375 56.78125 20.515625 
Q 56.78125 9.90625 50.3125 4.234375 
Q 43.84375 -1.421875 31.78125 -1.421875 
Q 19.734375 -1.421875 13.25 4.234375 
Q 6.78125 9.90625 6.78125 20.515625 
Q 6.78125 27.484375 10.78125 32.3125 
Q 14.796875 37.15625 21.921875 38.8125 
z
M 18.3125 54.390625 
Q 18.3125 48.734375 21.84375 45.5625 
Q 25.390625 42.390625 31.78125 42.390625 
Q 38.140625 42.390625 41.71875 45.5625 
Q 45.3125 48.734375 45.3125 54.390625 
Q 45.3125 60.0625 41.71875 63.234375 
Q 38.140625 66.40625 31.78125 66.40625 
Q 25.390625 66.40625 21.84375 63.234375 
Q 18.3125 60.0625 18.3125 54.390625 
z
" id="DejaVuSans-56"/>
      </defs>
      <g transform="translate(160.275 734.16903)scale(0.1 -0.1)">
       <use xlink:href="#DejaVuSans-56"/>
       <use x="63.623047" xlink:href="#DejaVuSans-48"/>
      </g>
     </g>
    </g>
    <g id="ytick_6">
     <g id="line2d_6">
      <g>
       <use style="stroke:#000000;stroke-width:0.8;" x="180" xlink:href="#m3cfd52b70d" y="603.577358"/>
      </g>
     </g>
     <g id="text_6">
      <!-- 100 -->
      <defs>
       <path d="M 12.40625 8.296875 
L 28.515625 8.296875 
L 28.515625 63.921875 
L 10.984375 60.40625 
L 10.984375 69.390625 
L 28.421875 72.90625 
L 38.28125 72.90625 
L 38.28125 8.296875 
L 54.390625 8.296875 
L 54.390625 0 
L 12.40625 0 
z
" id="DejaVuSans-49"/>
      </defs>
      <g transform="translate(153.9125 607.376577)scale(0.1 -0.1)">
       <use xlink:href="#DejaVuSans-49"/>
       <use x="63.623047" xlink:href="#DejaVuSans-48"/>
       <use x="127.246094" xlink:href="#DejaVuSans-48"/>
      </g>
     </g>
    </g>
    <g id="ytick_7">
     <g id="line2d_7">
      <g>
       <use style="stroke:#000000;stroke-width:0.8;" x="180" xlink:href="#m3cfd52b70d" y="476.784906"/>
      </g>
     </g>
     <g id="text_7">
      <!-- 120 -->
      <g transform="translate(153.9125 480.584124)scale(0.1 -0.1)">
       <use xlink:href="#DejaVuSans-49"/>
       <use x="63.623047" xlink:href="#DejaVuSans-50"/>
       <use x="127.246094" xlink:href="#DejaVuSans-48"/>
      </g>
     </g>
    </g>
    <g id="ytick_8">
     <g id="line2d_8">
      <g>
       <use style="stroke:#000000;stroke-width:0.8;" x="180" xlink:href="#m3cfd52b70d" y="349.992453"/>
      </g>
     </g>
     <g id="text_8">
      <!-- 140 -->
      <g transform="translate(153.9125 353.791672)scale(0.1 -0.1)">
       <use xlink:href="#DejaVuSans-49"/>
       <use x="63.623047" xlink:href="#DejaVuSans-52"/>
       <use x="127.246094" xlink:href="#DejaVuSans-48"/>
      </g>
     </g>
    </g>
    <g id="ytick_9">
     <g id="line2d_9">
      <g>
       <use style="stroke:#000000;stroke-width:0.8;" x="180" xlink:href="#m3cfd52b70d" y="223.2"/>
      </g>
     </g>
     <g id="text_9">
      <!-- 160 -->
      <g transform="translate(153.9125 226.999219)scale(0.1 -0.1)">
       <use xlink:href="#DejaVuSans-49"/>
       <use x="63.623047" xlink:href="#DejaVuSans-54"/>
       <use x="127.246094" xlink:href="#DejaVuSans-48"/>
      </g>
     </g>
    </g>
   </g>
   <g id="line2d_10">
    <path clip-path="url(#p7bfd918f64)" d="M 230.727273 1231.2 
" style="fill:none;stroke:#440154;stroke-linecap:square;stroke-width:1.5;"/>
   </g>
   <g id="line2d_11">
    <path clip-path="url(#p7bfd918f64)" d="M 230.727273 1224.860377 
L 281.454545 1231.2 
" style="fill:none;stroke:#471365;stroke-linecap:square;stroke-width:1.5;"/>
   </g>
   <g id="line2d_12">
    <path clip-path="url(#p7bfd918f64)" d="M 230.727273 1218.520755 
L 281.454545 1174.143396 
L 332.181818 1205.841509 
L 382.909091 1136.10566 
L 433.636364 1186.822642 
L 484.363636 1212.181132 
L 535.090909 1224.860377 
L 585.818182 1231.2 
" style="fill:none;stroke:#482475;stroke-linecap:square;stroke-width:1.5;"/>
   </g>
   <g id="line2d_13">
    <path clip-path="url(#p7bfd918f64)" d="M 230.727273 1212.181132 
L 281.454545 1224.860377 
L 332.181818 1231.2 
" style="fill:none;stroke:#463480;stroke-linecap:square;stroke-width:1.5;"/>
   </g>
   <g id="line2d_14">
    <path clip-path="url(#p7bfd918f64)" d="M 230.727273 1205.841509 
L 281.454545 1136.10566 
L 332.181818 1186.822642 
L 382.909091 1212.181132 
L 433.636364 1224.860377 
L 484.363636 1231.2 
" style="fill:none;stroke:#414487;stroke-linecap:square;stroke-width:1.5;"/>
   </g>
   <g id="line2d_15">
    <path clip-path="url(#p7bfd918f64)" d="M 230.727273 1199.501887 
L 281.454545 1218.520755 
L 332.181818 1174.143396 
L 382.909091 1205.841509 
L 433.636364 1136.10566 
L 484.363636 1186.822642 
L 535.090909 1212.181132 
L 585.818182 1224.860377 
L 636.545455 1231.2 
" style="fill:none;stroke:#3b528b;stroke-linecap:square;stroke-width:1.5;"/>
   </g>
   <g id="line2d_16">
    <path clip-path="url(#p7bfd918f64)" d="M 230.727273 1193.162264 
L 281.454545 1098.067925 
L 332.181818 1167.803774 
L 382.909091 1021.992453 
L 433.636364 1129.766038 
L 484.363636 907.879245 
L 535.090909 1072.709434 
L 585.818182 1155.124528 
L 636.545455 983.954717 
L 687.272727 1110.74717 
L 738 1174.143396 
L 788.727273 1205.841509 
L 839.454545 1136.10566 
L 890.181818 1186.822642 
L 940.909091 1212.181132 
L 991.636364 1224.860377 
L 1042.363636 1231.2 
" style="fill:none;stroke:#355f8d;stroke-linecap:square;stroke-width:1.5;"/>
   </g>
   <g id="line2d_17">
    <path clip-path="url(#p7bfd918f64)" d="M 230.727273 1186.822642 
L 281.454545 1212.181132 
L 332.181818 1224.860377 
L 382.909091 1231.2 
" style="fill:none;stroke:#2f6c8e;stroke-linecap:square;stroke-width:1.5;"/>
   </g>
   <g id="line2d_18">
    <path clip-path="url(#p7bfd918f64)" d="M 230.727273 1180.483019 
L 281.454545 1060.030189 
L 332.181818 1148.784906 
L 382.909091 1193.162264 
L 433.636364 1098.067925 
L 484.363636 1167.803774 
L 535.090909 1021.992453 
L 585.818182 1129.766038 
L 636.545455 907.879245 
L 687.272727 1072.709434 
L 738 1155.124528 
L 788.727273 983.954717 
L 839.454545 1110.74717 
L 890.181818 1174.143396 
L 940.909091 1205.841509 
L 991.636364 1136.10566 
L 1042.363636 1186.822642 
L 1093.090909 1212.181132 
L 1143.818182 1224.860377 
L 1194.545455 1231.2 
" style="fill:none;stroke:#2a788e;stroke-linecap:square;stroke-width:1.5;"/>
   </g>
   <g id="line2d_19">
    <path clip-path="url(#p7bfd918f64)" d="M 230.727273 1174.143396 
L 281.454545 1205.841509 
L 332.181818 1136.10566 
L 382.909091 1186.822642 
L 433.636364 1212.181132 
L 484.363636 1224.860377 
L 535.090909 1231.2 
" style="fill:none;stroke:#25848e;stroke-linecap:square;stroke-width:1.5;"/>
   </g>
   <g id="line2d_20">
    <path clip-path="url(#p7bfd918f64)" d="M 230.727273 1167.803774 
L 281.454545 1021.992453 
L 332.181818 1129.766038 
L 382.909091 907.879245 
L 433.636364 1072.709434 
L 484.363636 1155.124528 
L 535.090909 983.954717 
L 585.818182 1110.74717 
L 636.545455 1174.143396 
L 687.272727 1205.841509 
L 738 1136.10566 
L 788.727273 1186.822642 
L 839.454545 1212.181132 
L 890.181818 1224.860377 
L 940.909091 1231.2 
" style="fill:none;stroke:#21918c;stroke-linecap:square;stroke-width:1.5;"/>
   </g>
   <g id="line2d_21">
    <path clip-path="url(#p7bfd918f64)" d="M 230.727273 1161.464151 
L 281.454545 1199.501887 
L 332.181818 1218.520755 
L 382.909091 1174.143396 
L 433.636364 1205.841509 
L 484.363636 1136.10566 
L 535.090909 1186.822642 
L 585.818182 1212.181132 
L 636.545455 1224.860377 
L 687.272727 1231.2 
" style="fill:none;stroke:#1e9c89;stroke-linecap:square;stroke-width:1.5;"/>
   </g>
   <g id="line2d_22">
    <path clip-path="url(#p7bfd918f64)" d="M 230.727273 1155.124528 
L 281.454545 983.954717 
L 332.181818 1110.74717 
L 382.909091 1174.143396 
L 433.636364 1205.841509 
L 484.363636 1136.10566 
L 535.090909 1186.822642 
L 585.818182 1212.181132 
L 636.545455 1224.860377 
L 687.272727 1231.2 
" style="fill:none;stroke:#22a884;stroke-linecap:square;stroke-width:1.5;"/>
   </g>
   <g id="line2d_23">
    <path clip-path="url(#p7bfd918f64)" d="M 230.727273 1148.784906 
L 281.454545 1193.162264 
L 332.181818 1098.067925 
L 382.909091 1167.803774 
L 433.636364 1021.992453 
L 484.363636 1129.766038 
L 535.090909 907.879245 
L 585.818182 1072.709434 
L 636.545455 1155.124528 
L 687.272727 983.954717 
L 738 1110.74717 
L 788.727273 1174.143396 
L 839.454545 1205.841509 
L 890.181818 1136.10566 
L 940.909091 1186.822642 
L 991.636364 1212.181132 
L 1042.363636 1224.860377 
L 1093.090909 1231.2 
" style="fill:none;stroke:#2fb47c;stroke-linecap:square;stroke-width:1.5;"/>
   </g>
   <g id="line2d_24">
    <path clip-path="url(#p7bfd918f64)" d="M 230.727273 1142.445283 
L 281.454545 945.916981 
L 332.181818 1091.728302 
L 382.909091 793.766038 
L 433.636364 1015.65283 
L 484.363636 565.539623 
L 535.090909 901.539623 
L 585.818182 223.2 
L 636.545455 730.369811 
L 687.272727 983.954717 
L 738 1110.74717 
L 788.727273 1174.143396 
L 839.454545 1205.841509 
L 890.181818 1136.10566 
L 940.909091 1186.822642 
L 991.636364 1212.181132 
L 1042.363636 1224.860377 
L 1093.090909 1231.2 
" style="fill:none;stroke:#44bf70;stroke-linecap:square;stroke-width:1.5;"/>
   </g>
   <g id="line2d_25">
    <path clip-path="url(#p7bfd918f64)" d="M 230.727273 1136.10566 
L 281.454545 1186.822642 
L 332.181818 1212.181132 
L 382.909091 1224.860377 
L 433.636364 1231.2 
" style="fill:none;stroke:#5ec962;stroke-linecap:square;stroke-width:1.5;"/>
   </g>
   <g id="line2d_26">
    <path clip-path="url(#p7bfd918f64)" d="M 230.727273 1129.766038 
L 281.454545 907.879245 
L 332.181818 1072.709434 
L 382.909091 1155.124528 
L 433.636364 983.954717 
L 484.363636 1110.74717 
L 535.090909 1174.143396 
L 585.818182 1205.841509 
L 636.545455 1136.10566 
L 687.272727 1186.822642 
L 738 1212.181132 
L 788.727273 1224.860377 
L 839.454545 1231.2 
" style="fill:none;stroke:#7ad151;stroke-linecap:square;stroke-width:1.5;"/>
   </g>
   <g id="line2d_27">
    <path clip-path="url(#p7bfd918f64)" d="M 230.727273 1123.426415 
L 281.454545 1180.483019 
L 332.181818 1060.030189 
L 382.909091 1148.784906 
L 433.636364 1193.162264 
L 484.363636 1098.067925 
L 535.090909 1167.803774 
L 585.818182 1021.992453 
L 636.545455 1129.766038 
L 687.272727 907.879245 
L 738 1072.709434 
L 788.727273 1155.124528 
L 839.454545 983.954717 
L 890.181818 1110.74717 
L 940.909091 1174.143396 
L 991.636364 1205.841509 
L 1042.363636 1136.10566 
L 1093.090909 1186.822642 
L 1143.818182 1212.181132 
L 1194.545455 1224.860377 
L 1245.272727 1231.2 
" style="fill:none;stroke:#9bd93c;stroke-linecap:square;stroke-width:1.5;"/>
   </g>
   <g id="line2d_28">
    <path clip-path="url(#p7bfd918f64)" d="M 230.727273 1117.086792 
L 281.454545 869.841509 
L 332.181818 1053.690566 
L 382.909091 679.65283 
L 433.636364 958.596226 
L 484.363636 1098.067925 
L 535.090909 1167.803774 
L 585.818182 1021.992453 
L 636.545455 1129.766038 
L 687.272727 907.879245 
L 738 1072.709434 
L 788.727273 1155.124528 
L 839.454545 983.954717 
L 890.181818 1110.74717 
L 940.909091 1174.143396 
L 991.636364 1205.841509 
L 1042.363636 1136.10566 
L 1093.090909 1186.822642 
L 1143.818182 1212.181132 
L 1194.545455 1224.860377 
L 1245.272727 1231.2 
" style="fill:none;stroke:#bddf26;stroke-linecap:square;stroke-width:1.5;"/>
   </g>
   <g id="line2d_29">
    <path clip-path="url(#p7bfd918f64)" d="M 230.727273 1110.74717 
L 281.454545 1174.143396 
L 332.181818 1205.841509 
L 382.909091 1136.10566 
L 433.636364 1186.822642 
L 484.363636 1212.181132 
L 535.090909 1224.860377 
L 585.818182 1231.2 
" style="fill:none;stroke:#dfe318;stroke-linecap:square;stroke-width:1.5;"/>
   </g>
   <g id="patch_3">
    <path d="M 180 1281.6 
L 180 172.8 
" style="fill:none;stroke:#000000;stroke-linecap:square;stroke-linejoin:miter;stroke-width:0.8;"/>
   </g>
   <g id="patch_4">
    <path d="M 1296 1281.6 
L 1296 172.8 
" style="fill:none;stroke:#000000;stroke-linecap:square;stroke-linejoin:miter;stroke-width:0.8;"/>
   </g>
   <g id="patch_5">
    <path d="M 180 1281.6 
L 1296 1281.6 
" style="fill:none;stroke:#000000;stroke-linecap:square;stroke-linejoin:miter;stroke-width:0.8;"/>
   </g>
   <g id="patch_6">
    <path d="M 180 172.8 
L 1296 172.8 
" style="fill:none;stroke:#000000;stroke-linecap:square;stroke-linejoin:miter;stroke-width:0.8;"/>
   </g>
  </g>
 </g>
 <defs>
  <clipPath id="p7bfd918f64">
   <rect height="1108.8" width="1116" x="180" y="172.8"/>
  </clipPath>
 </defs>
</svg>
