<?xml version="1.0" encoding="utf-8" standalone="no"?>
<!DOCTYPE svg PUBLIC "-//W3C//DTD SVG 1.1//EN"
  "http://www.w3.org/Graphics/SVG/1.1/DTD/svg11.dtd">
<!-- Created with matplotlib (https://matplotlib.org/) -->
<svg height="1440pt" version="1.1" viewBox="0 0 1440 1440" width="1440pt" xmlns="http://www.w3.org/2000/svg" xmlns:xlink="http://www.w3.org/1999/xlink">
 <defs>
  <style type="text/css">
*{stroke-linecap:butt;stroke-linejoin:round;}
  </style>
 </defs>
 <g id="figure_1">
  <g id="patch_1">
   <path d="M 0 1440 
L 1440 1440 
L 1440 0 
L 0 0 
z
" style="fill:#ffffff;"/>
  </g>
  <g id="axes_1">
   <g id="patch_2">
    <path d="M 180 1281.6 
L 1296 1281.6 
L 1296 172.8 
L 180 172.8 
z
" style="fill:#ffffff;"/>
   </g>
   <g id="matplotlib.axis_1">
    <g id="xtick_1"/>
    <g id="xtick_2"/>
    <g id="xtick_3"/>
    <g id="xtick_4"/>
    <g id="xtick_5"/>
    <g id="xtick_6"/>
    <g id="xtick_7"/>
    <g id="xtick_8"/>
    <g id="xtick_9"/>
    <g id="xtick_10"/>
    <g id="xtick_11"/>
    <g id="xtick_12"/>
    <g id="xtick_13"/>
    <g id="xtick_14"/>
    <g id="xtick_15"/>
    <g id="xtick_16"/>
    <g id="xtick_17"/>
    <g id="xtick_18"/>
    <g id="xtick_19"/>
    <g id="xtick_20"/>
    <g id="xtick_21"/>
   </g>
   <g id="matplotlib.axis_2">
    <g id="ytick_1">
     <g id="line2d_1">
      <defs>
       <path d="M 0 0 
L -3.5 0 
" id="mf4a990277c" style="stroke:#000000;stroke-width:0.8;"/>
      </defs>
      <g>
       <use style="stroke:#000000;stroke-width:0.8;" x="180" xlink:href="#mf4a990277c" y="1231.2"/>
      </g>
     </g>
     <g id="text_1">
      <!-- $\mathdefault{10^{0}}$ -->
      <defs>
       <path d="M 12.40625 8.296875 
L 28.515625 8.296875 
L 28.515625 63.921875 
L 10.984375 60.40625 
L 10.984375 69.390625 
L 28.421875 72.90625 
L 38.28125 72.90625 
L 38.28125 8.296875 
L 54.390625 8.296875 
L 54.390625 0 
L 12.40625 0 
z
" id="DejaVuSans-49"/>
       <path d="M 31.78125 66.40625 
Q 24.171875 66.40625 20.328125 58.90625 
Q 16.5 51.421875 16.5 36.375 
Q 16.5 21.390625 20.328125 13.890625 
Q 24.171875 6.390625 31.78125 6.390625 
Q 39.453125 6.390625 43.28125 13.890625 
Q 47.125 21.390625 47.125 36.375 
Q 47.125 51.421875 43.28125 58.90625 
Q 39.453125 66.40625 31.78125 66.40625 
z
M 31.78125 74.21875 
Q 44.046875 74.21875 50.515625 64.515625 
Q 56.984375 54.828125 56.984375 36.375 
Q 56.984375 17.96875 50.515625 8.265625 
Q 44.046875 -1.421875 31.78125 -1.421875 
Q 19.53125 -1.421875 13.0625 8.265625 
Q 6.59375 17.96875 6.59375 36.375 
Q 6.59375 54.828125 13.0625 64.515625 
Q 19.53125 74.21875 31.78125 74.21875 
z
" id="DejaVuSans-48"/>
      </defs>
      <g transform="translate(155.4 1234.999219)scale(0.1 -0.1)">
       <use transform="translate(0 0.765625)" xlink:href="#DejaVuSans-49"/>
       <use transform="translate(63.623047 0.765625)" xlink:href="#DejaVuSans-48"/>
       <use transform="translate(128.203125 39.046875)scale(0.7)" xlink:href="#DejaVuSans-48"/>
      </g>
     </g>
    </g>
    <g id="ytick_2">
     <g id="line2d_2">
      <g>
       <use style="stroke:#000000;stroke-width:0.8;" x="180" xlink:href="#mf4a990277c" y="976.9945"/>
      </g>
     </g>
     <g id="text_2">
      <!-- $\mathdefault{10^{1}}$ -->
      <g transform="translate(155.4 980.793719)scale(0.1 -0.1)">
       <use transform="translate(0 0.684375)" xlink:href="#DejaVuSans-49"/>
       <use transform="translate(63.623047 0.684375)" xlink:href="#DejaVuSans-48"/>
       <use transform="translate(128.203125 38.965625)scale(0.7)" xlink:href="#DejaVuSans-49"/>
      </g>
     </g>
    </g>
    <g id="ytick_3">
     <g id="line2d_3">
      <g>
       <use style="stroke:#000000;stroke-width:0.8;" x="180" xlink:href="#mf4a990277c" y="722.789"/>
      </g>
     </g>
     <g id="text_3">
      <!-- $\mathdefault{10^{2}}$ -->
      <defs>
       <path d="M 19.1875 8.296875 
L 53.609375 8.296875 
L 53.609375 0 
L 7.328125 0 
L 7.328125 8.296875 
Q 12.9375 14.109375 22.625 23.890625 
Q 32.328125 33.6875 34.8125 36.53125 
Q 39.546875 41.84375 41.421875 45.53125 
Q 43.3125 49.21875 43.3125 52.78125 
Q 43.3125 58.59375 39.234375 62.25 
Q 35.15625 65.921875 28.609375 65.921875 
Q 23.96875 65.921875 18.8125 64.3125 
Q 13.671875 62.703125 7.8125 59.421875 
L 7.8125 69.390625 
Q 13.765625 71.78125 18.9375 73 
Q 24.125 74.21875 28.421875 74.21875 
Q 39.75 74.21875 46.484375 68.546875 
Q 53.21875 62.890625 53.21875 53.421875 
Q 53.21875 48.921875 51.53125 44.890625 
Q 49.859375 40.875 45.40625 35.40625 
Q 44.1875 33.984375 37.640625 27.21875 
Q 31.109375 20.453125 19.1875 8.296875 
z
" id="DejaVuSans-50"/>
      </defs>
      <g transform="translate(155.4 726.588219)scale(0.1 -0.1)">
       <use transform="translate(0 0.765625)" xlink:href="#DejaVuSans-49"/>
       <use transform="translate(63.623047 0.765625)" xlink:href="#DejaVuSans-48"/>
       <use transform="translate(128.203125 39.046875)scale(0.7)" xlink:href="#DejaVuSans-50"/>
      </g>
     </g>
    </g>
    <g id="ytick_4">
     <g id="line2d_4">
      <g>
       <use style="stroke:#000000;stroke-width:0.8;" x="180" xlink:href="#mf4a990277c" y="468.5835"/>
      </g>
     </g>
     <g id="text_4">
      <!-- $\mathdefault{10^{3}}$ -->
      <defs>
       <path d="M 40.578125 39.3125 
Q 47.65625 37.796875 51.625 33 
Q 55.609375 28.21875 55.609375 21.1875 
Q 55.609375 10.40625 48.1875 4.484375 
Q 40.765625 -1.421875 27.09375 -1.421875 
Q 22.515625 -1.421875 17.65625 -0.515625 
Q 12.796875 0.390625 7.625 2.203125 
L 7.625 11.71875 
Q 11.71875 9.328125 16.59375 8.109375 
Q 21.484375 6.890625 26.8125 6.890625 
Q 36.078125 6.890625 40.9375 10.546875 
Q 45.796875 14.203125 45.796875 21.1875 
Q 45.796875 27.640625 41.28125 31.265625 
Q 36.765625 34.90625 28.71875 34.90625 
L 20.21875 34.90625 
L 20.21875 43.015625 
L 29.109375 43.015625 
Q 36.375 43.015625 40.234375 45.921875 
Q 44.09375 48.828125 44.09375 54.296875 
Q 44.09375 59.90625 40.109375 62.90625 
Q 36.140625 65.921875 28.71875 65.921875 
Q 24.65625 65.921875 20.015625 65.03125 
Q 15.375 64.15625 9.8125 62.3125 
L 9.8125 71.09375 
Q 15.4375 72.65625 20.34375 73.4375 
Q 25.25 74.21875 29.59375 74.21875 
Q 40.828125 74.21875 47.359375 69.109375 
Q 53.90625 64.015625 53.90625 55.328125 
Q 53.90625 49.265625 50.4375 45.09375 
Q 46.96875 40.921875 40.578125 39.3125 
z
" id="DejaVuSans-51"/>
      </defs>
      <g transform="translate(155.4 472.382719)scale(0.1 -0.1)">
       <use transform="translate(0 0.765625)" xlink:href="#DejaVuSans-49"/>
       <use transform="translate(63.623047 0.765625)" xlink:href="#DejaVuSans-48"/>
       <use transform="translate(128.203125 39.046875)scale(0.7)" xlink:href="#DejaVuSans-51"/>
      </g>
     </g>
    </g>
    <g id="ytick_5">
     <g id="line2d_5">
      <g>
       <use style="stroke:#000000;stroke-width:0.8;" x="180" xlink:href="#mf4a990277c" y="214.378"/>
      </g>
     </g>
     <g id="text_5">
      <!-- $\mathdefault{10^{4}}$ -->
      <defs>
       <path d="M 37.796875 64.3125 
L 12.890625 25.390625 
L 37.796875 25.390625 
z
M 35.203125 72.90625 
L 47.609375 72.90625 
L 47.609375 25.390625 
L 58.015625 25.390625 
L 58.015625 17.1875 
L 47.609375 17.1875 
L 47.609375 0 
L 37.796875 0 
L 37.796875 17.1875 
L 4.890625 17.1875 
L 4.890625 26.703125 
z
" id="DejaVuSans-52"/>
      </defs>
      <g transform="translate(155.4 218.177219)scale(0.1 -0.1)">
       <use transform="translate(0 0.684375)" xlink:href="#DejaVuSans-49"/>
       <use transform="translate(63.623047 0.684375)" xlink:href="#DejaVuSans-48"/>
       <use transform="translate(128.203125 38.965625)scale(0.7)" xlink:href="#DejaVuSans-52"/>
      </g>
     </g>
    </g>
    <g id="ytick_6">
     <g id="line2d_6">
      <defs>
       <path d="M 0 0 
L -2 0 
" id="ma901200340" style="stroke:#000000;stroke-width:0.6;"/>
      </defs>
      <g>
       <use style="stroke:#000000;stroke-width:0.6;" x="180" xlink:href="#ma901200340" y="1270.57693"/>
      </g>
     </g>
    </g>
    <g id="ytick_7">
     <g id="line2d_7">
      <g>
       <use style="stroke:#000000;stroke-width:0.6;" x="180" xlink:href="#ma901200340" y="1255.835058"/>
      </g>
     </g>
    </g>
    <g id="ytick_8">
     <g id="line2d_8">
      <g>
       <use style="stroke:#000000;stroke-width:0.6;" x="180" xlink:href="#ma901200340" y="1242.831806"/>
      </g>
     </g>
    </g>
    <g id="ytick_9">
     <g id="line2d_9">
      <g>
       <use style="stroke:#000000;stroke-width:0.6;" x="180" xlink:href="#ma901200340" y="1154.676519"/>
      </g>
     </g>
    </g>
    <g id="ytick_10">
     <g id="line2d_10">
      <g>
       <use style="stroke:#000000;stroke-width:0.6;" x="180" xlink:href="#ma901200340" y="1109.913153"/>
      </g>
     </g>
    </g>
    <g id="ytick_11">
     <g id="line2d_11">
      <g>
       <use style="stroke:#000000;stroke-width:0.6;" x="180" xlink:href="#ma901200340" y="1078.153039"/>
      </g>
     </g>
    </g>
    <g id="ytick_12">
     <g id="line2d_12">
      <g>
       <use style="stroke:#000000;stroke-width:0.6;" x="180" xlink:href="#ma901200340" y="1053.517981"/>
      </g>
     </g>
    </g>
    <g id="ytick_13">
     <g id="line2d_13">
      <g>
       <use style="stroke:#000000;stroke-width:0.6;" x="180" xlink:href="#ma901200340" y="1033.389672"/>
      </g>
     </g>
    </g>
    <g id="ytick_14">
     <g id="line2d_14">
      <g>
       <use style="stroke:#000000;stroke-width:0.6;" x="180" xlink:href="#ma901200340" y="1016.37143"/>
      </g>
     </g>
    </g>
    <g id="ytick_15">
     <g id="line2d_15">
      <g>
       <use style="stroke:#000000;stroke-width:0.6;" x="180" xlink:href="#ma901200340" y="1001.629558"/>
      </g>
     </g>
    </g>
    <g id="ytick_16">
     <g id="line2d_16">
      <g>
       <use style="stroke:#000000;stroke-width:0.6;" x="180" xlink:href="#ma901200340" y="988.626306"/>
      </g>
     </g>
    </g>
    <g id="ytick_17">
     <g id="line2d_17">
      <g>
       <use style="stroke:#000000;stroke-width:0.6;" x="180" xlink:href="#ma901200340" y="900.47102"/>
      </g>
     </g>
    </g>
    <g id="ytick_18">
     <g id="line2d_18">
      <g>
       <use style="stroke:#000000;stroke-width:0.6;" x="180" xlink:href="#ma901200340" y="855.707653"/>
      </g>
     </g>
    </g>
    <g id="ytick_19">
     <g id="line2d_19">
      <g>
       <use style="stroke:#000000;stroke-width:0.6;" x="180" xlink:href="#ma901200340" y="823.947539"/>
      </g>
     </g>
    </g>
    <g id="ytick_20">
     <g id="line2d_20">
      <g>
       <use style="stroke:#000000;stroke-width:0.6;" x="180" xlink:href="#ma901200340" y="799.312481"/>
      </g>
     </g>
    </g>
    <g id="ytick_21">
     <g id="line2d_21">
      <g>
       <use style="stroke:#000000;stroke-width:0.6;" x="180" xlink:href="#ma901200340" y="779.184173"/>
      </g>
     </g>
    </g>
    <g id="ytick_22">
     <g id="line2d_22">
      <g>
       <use style="stroke:#000000;stroke-width:0.6;" x="180" xlink:href="#ma901200340" y="762.16593"/>
      </g>
     </g>
    </g>
    <g id="ytick_23">
     <g id="line2d_23">
      <g>
       <use style="stroke:#000000;stroke-width:0.6;" x="180" xlink:href="#ma901200340" y="747.424059"/>
      </g>
     </g>
    </g>
    <g id="ytick_24">
     <g id="line2d_24">
      <g>
       <use style="stroke:#000000;stroke-width:0.6;" x="180" xlink:href="#ma901200340" y="734.420806"/>
      </g>
     </g>
    </g>
    <g id="ytick_25">
     <g id="line2d_25">
      <g>
       <use style="stroke:#000000;stroke-width:0.6;" x="180" xlink:href="#ma901200340" y="646.26552"/>
      </g>
     </g>
    </g>
    <g id="ytick_26">
     <g id="line2d_26">
      <g>
       <use style="stroke:#000000;stroke-width:0.6;" x="180" xlink:href="#ma901200340" y="601.502153"/>
      </g>
     </g>
    </g>
    <g id="ytick_27">
     <g id="line2d_27">
      <g>
       <use style="stroke:#000000;stroke-width:0.6;" x="180" xlink:href="#ma901200340" y="569.742039"/>
      </g>
     </g>
    </g>
    <g id="ytick_28">
     <g id="line2d_28">
      <g>
       <use style="stroke:#000000;stroke-width:0.6;" x="180" xlink:href="#ma901200340" y="545.106981"/>
      </g>
     </g>
    </g>
    <g id="ytick_29">
     <g id="line2d_29">
      <g>
       <use style="stroke:#000000;stroke-width:0.6;" x="180" xlink:href="#ma901200340" y="524.978673"/>
      </g>
     </g>
    </g>
    <g id="ytick_30">
     <g id="line2d_30">
      <g>
       <use style="stroke:#000000;stroke-width:0.6;" x="180" xlink:href="#ma901200340" y="507.96043"/>
      </g>
     </g>
    </g>
    <g id="ytick_31">
     <g id="line2d_31">
      <g>
       <use style="stroke:#000000;stroke-width:0.6;" x="180" xlink:href="#ma901200340" y="493.218559"/>
      </g>
     </g>
    </g>
    <g id="ytick_32">
     <g id="line2d_32">
      <g>
       <use style="stroke:#000000;stroke-width:0.6;" x="180" xlink:href="#ma901200340" y="480.215306"/>
      </g>
     </g>
    </g>
    <g id="ytick_33">
     <g id="line2d_33">
      <g>
       <use style="stroke:#000000;stroke-width:0.6;" x="180" xlink:href="#ma901200340" y="392.06002"/>
      </g>
     </g>
    </g>
    <g id="ytick_34">
     <g id="line2d_34">
      <g>
       <use style="stroke:#000000;stroke-width:0.6;" x="180" xlink:href="#ma901200340" y="347.296653"/>
      </g>
     </g>
    </g>
    <g id="ytick_35">
     <g id="line2d_35">
      <g>
       <use style="stroke:#000000;stroke-width:0.6;" x="180" xlink:href="#ma901200340" y="315.536539"/>
      </g>
     </g>
    </g>
    <g id="ytick_36">
     <g id="line2d_36">
      <g>
       <use style="stroke:#000000;stroke-width:0.6;" x="180" xlink:href="#ma901200340" y="290.901481"/>
      </g>
     </g>
    </g>
    <g id="ytick_37">
     <g id="line2d_37">
      <g>
       <use style="stroke:#000000;stroke-width:0.6;" x="180" xlink:href="#ma901200340" y="270.773173"/>
      </g>
     </g>
    </g>
    <g id="ytick_38">
     <g id="line2d_38">
      <g>
       <use style="stroke:#000000;stroke-width:0.6;" x="180" xlink:href="#ma901200340" y="253.754931"/>
      </g>
     </g>
    </g>
    <g id="ytick_39">
     <g id="line2d_39">
      <g>
       <use style="stroke:#000000;stroke-width:0.6;" x="180" xlink:href="#ma901200340" y="239.013059"/>
      </g>
     </g>
    </g>
    <g id="ytick_40">
     <g id="line2d_40">
      <g>
       <use style="stroke:#000000;stroke-width:0.6;" x="180" xlink:href="#ma901200340" y="226.009806"/>
      </g>
     </g>
    </g>
   </g>
   <g id="line2d_41">
    <path clip-path="url(#pd048c57b80)" style="fill:none;stroke:#440154;stroke-linecap:square;stroke-width:1.5;"/>
   </g>
   <g id="line2d_42">
    <path clip-path="url(#pd048c57b80)" d="M -1 1231.164251 
L 230.727273 1231.2 
" style="fill:none;stroke:#470d60;stroke-linecap:square;stroke-width:1.5;"/>
   </g>
   <g id="line2d_43">
    <path clip-path="url(#pd048c57b80)" d="M -1 977.056595 
L 230.727273 976.9945 
L 380.047755 1053.517981 
L 467.394638 925.106078 
L 529.368237 1001.629558 
L 577.438696 1078.153039 
L 616.71512 1154.676519 
L 649.922864 1231.2 
" style="fill:none;stroke:#481a6c;stroke-linecap:square;stroke-width:1.5;"/>
   </g>
   <g id="line2d_44">
    <path clip-path="url(#pd048c57b80)" d="M -1 1154.640771 
L 230.727273 1154.676519 
L 380.047755 1231.2 
" style="fill:none;stroke:#482475;stroke-linecap:square;stroke-width:1.5;"/>
   </g>
   <g id="line2d_45">
    <path clip-path="url(#pd048c57b80)" d="M -1 925.166067 
L 230.727273 925.106078 
L 380.047755 1001.629558 
L 467.394638 1078.153039 
L 529.368237 1154.676519 
L 577.438696 1231.2 
" style="fill:none;stroke:#472f7d;stroke-linecap:square;stroke-width:1.5;"/>
   </g>
   <g id="line2d_46">
    <path clip-path="url(#pd048c57b80)" d="M -1 1109.877404 
L 230.727273 1109.913153 
L 380.047755 976.9945 
L 467.394638 1053.517981 
L 529.368237 925.106078 
L 577.438696 1001.629558 
L 616.71512 1078.153039 
L 649.922864 1154.676519 
L 678.68872 1231.2 
" style="fill:none;stroke:#443983;stroke-linecap:square;stroke-width:1.5;"/>
   </g>
   <g id="line2d_47">
    <path clip-path="url(#pd048c57b80)" d="M -1 890.007831 
L 230.727273 889.948771 
L 380.047755 966.472252 
L 467.394638 841.889636 
L 529.368237 918.413117 
L 577.438696 794.982512 
L 616.71512 871.505993 
L 649.922864 948.029473 
L 678.68872 823.947539 
L 704.062003 900.47102 
L 726.759178 976.9945 
L 747.291271 1053.517981 
L 766.035603 925.106078 
L 783.278716 1001.629558 
L 799.243346 1078.153039 
L 814.106061 1154.676519 
L 828.009202 1231.2 
" style="fill:none;stroke:#414487;stroke-linecap:square;stroke-width:1.5;"/>
   </g>
   <g id="line2d_48">
    <path clip-path="url(#pd048c57b80)" d="M -1 1078.11729 
L 230.727273 1078.153039 
L 380.047755 1154.676519 
L 467.394638 1231.2 
" style="fill:none;stroke:#3d4d8a;stroke-linecap:square;stroke-width:1.5;"/>
   </g>
   <g id="line2d_49">
    <path clip-path="url(#pd048c57b80)" d="M -1 863.383005 
L 230.727273 863.324469 
L 380.047755 939.84795 
L 467.394638 1016.37143 
L 529.368237 889.948771 
L 577.438696 966.472252 
L 616.71512 841.889636 
L 649.922864 918.413117 
L 678.68872 794.982512 
L 704.062003 871.505993 
L 726.759178 948.029473 
L 747.291271 823.947539 
L 766.035603 900.47102 
L 783.278716 976.9945 
L 799.243346 1053.517981 
L 814.106061 925.106078 
L 828.009202 1001.629558 
L 841.069196 1078.153039 
L 853.382485 1154.676519 
L 865.029858 1231.2 
" style="fill:none;stroke:#39568c;stroke-linecap:square;stroke-width:1.5;"/>
   </g>
   <g id="line2d_50">
    <path clip-path="url(#pd048c57b80)" d="M -1 1053.482232 
L 230.727273 1053.517981 
L 380.047755 925.106078 
L 467.394638 1001.629558 
L 529.368237 1078.153039 
L 577.438696 1154.676519 
L 616.71512 1231.2 
" style="fill:none;stroke:#355f8d;stroke-linecap:square;stroke-width:1.5;"/>
   </g>
   <g id="line2d_51">
    <path clip-path="url(#pd048c57b80)" d="M -1 841.947837 
L 230.727273 841.889636 
L 380.047755 918.413117 
L 467.394638 794.982512 
L 529.368237 871.505993 
L 577.438696 948.029473 
L 616.71512 823.947539 
L 649.922864 900.47102 
L 678.68872 976.9945 
L 704.062003 1053.517981 
L 726.759178 925.106078 
L 747.291271 1001.629558 
L 766.035603 1078.153039 
L 783.278716 1154.676519 
L 799.243346 1231.2 
" style="fill:none;stroke:#31688e;stroke-linecap:square;stroke-width:1.5;"/>
   </g>
   <g id="line2d_52">
    <path clip-path="url(#pd048c57b80)" d="M -1 1033.353924 
L 230.727273 1033.389672 
L 380.047755 1109.913153 
L 467.394638 976.9945 
L 529.368237 1053.517981 
L 577.438696 925.106078 
L 616.71512 1001.629558 
L 649.922864 1078.153039 
L 678.68872 1154.676519 
L 704.062003 1231.2 
" style="fill:none;stroke:#2d708e;stroke-linecap:square;stroke-width:1.5;"/>
   </g>
   <g id="line2d_53">
    <path clip-path="url(#pd048c57b80)" d="M -1 824.005505 
L 230.727273 823.947539 
L 380.047755 900.47102 
L 467.394638 976.9945 
L 529.368237 1053.517981 
L 577.438696 925.106078 
L 616.71512 1001.629558 
L 649.922864 1078.153039 
L 678.68872 1154.676519 
L 704.062003 1231.2 
" style="fill:none;stroke:#2a788e;stroke-linecap:square;stroke-width:1.5;"/>
   </g>
   <g id="line2d_54">
    <path clip-path="url(#pd048c57b80)" d="M -1 1016.335681 
L 230.727273 1016.37143 
L 380.047755 889.948771 
L 467.394638 966.472252 
L 529.368237 841.889636 
L 577.438696 918.413117 
L 616.71512 794.982512 
L 649.922864 871.505993 
L 678.68872 948.029473 
L 704.062003 823.947539 
L 726.759178 900.47102 
L 747.291271 976.9945 
L 766.035603 1053.517981 
L 783.278716 925.106078 
L 799.243346 1001.629558 
L 814.106061 1078.153039 
L 828.009202 1154.676519 
L 841.069196 1231.2 
" style="fill:none;stroke:#27808e;stroke-linecap:square;stroke-width:1.5;"/>
   </g>
   <g id="line2d_55">
    <path clip-path="url(#pd048c57b80)" d="M -1 808.575608 
L 230.727273 808.517814 
L 380.047755 885.041295 
L 467.394638 762.16593 
L 529.368237 838.689411 
L 577.438696 716.35611 
L 616.71512 792.879591 
L 649.922864 670.900578 
L 678.68872 747.424059 
L 704.062003 823.947539 
L 726.759178 900.47102 
L 747.291271 976.9945 
L 766.035603 1053.517981 
L 783.278716 925.106078 
L 799.243346 1001.629558 
L 814.106061 1078.153039 
L 828.009202 1154.676519 
L 841.069196 1231.2 
" style="fill:none;stroke:#23888e;stroke-linecap:square;stroke-width:1.5;"/>
   </g>
   <g id="line2d_56">
    <path clip-path="url(#pd048c57b80)" d="M -1 1001.59381 
L 230.727273 1001.629558 
L 380.047755 1078.153039 
L 467.394638 1154.676519 
L 529.368237 1231.2 
" style="fill:none;stroke:#21918c;stroke-linecap:square;stroke-width:1.5;"/>
   </g>
   <g id="line2d_57">
    <path clip-path="url(#pd048c57b80)" d="M -1 795.040174 
L 230.727273 794.982512 
L 380.047755 871.505993 
L 467.394638 948.029473 
L 529.368237 823.947539 
L 577.438696 900.47102 
L 616.71512 976.9945 
L 649.922864 1053.517981 
L 678.68872 925.106078 
L 704.062003 1001.629558 
L 726.759178 1078.153039 
L 747.291271 1154.676519 
L 766.035603 1231.2 
" style="fill:none;stroke:#1f988b;stroke-linecap:square;stroke-width:1.5;"/>
   </g>
   <g id="line2d_58">
    <path clip-path="url(#pd048c57b80)" d="M -1 988.590557 
L 230.727273 988.626306 
L 380.047755 863.324469 
L 467.394638 939.84795 
L 529.368237 1016.37143 
L 577.438696 889.948771 
L 616.71512 966.472252 
L 649.922864 841.889636 
L 678.68872 918.413117 
L 704.062003 794.982512 
L 726.759178 871.505993 
L 747.291271 948.029473 
L 766.035603 823.947539 
L 783.278716 900.47102 
L 799.243346 976.9945 
L 814.106061 1053.517981 
L 828.009202 925.106078 
L 841.069196 1001.629558 
L 853.382485 1078.153039 
L 865.029858 1154.676519 
L 876.079661 1231.2 
" style="fill:none;stroke:#1fa188;stroke-linecap:square;stroke-width:1.5;"/>
   </g>
   <g id="line2d_59">
    <path clip-path="url(#pd048c57b80)" d="M -1 782.984463 
L 230.727273 782.926905 
L 380.047755 859.450386 
L 467.394638 736.90181 
L 529.368237 813.425291 
L 577.438696 889.948771 
L 616.71512 966.472252 
L 649.922864 841.889636 
L 678.68872 918.413117 
L 704.062003 794.982512 
L 726.759178 871.505993 
L 747.291271 948.029473 
L 766.035603 823.947539 
L 783.278716 900.47102 
L 799.243346 976.9945 
L 814.106061 1053.517981 
L 828.009202 925.106078 
L 841.069196 1001.629558 
L 853.382485 1078.153039 
L 865.029858 1154.676519 
L 876.079661 1231.2 
" style="fill:none;stroke:#22a884;stroke-linecap:square;stroke-width:1.5;"/>
   </g>
   <g id="line2d_60">
    <path clip-path="url(#pd048c57b80)" d="M -1 976.958751 
L 230.727273 976.9945 
L 380.047755 1053.517981 
L 467.394638 925.106078 
L 529.368237 1001.629558 
L 577.438696 1078.153039 
L 616.71512 1154.676519 
L 649.922864 1231.2 
" style="fill:none;stroke:#2ab07f;stroke-linecap:square;stroke-width:1.5;"/>
   </g>
   <g id="line2d_61">
    <path clip-path="url(#pd048c57b80)" d="M -1 772.11659 
L 230.727273 772.059117 
L 380.047755 848.582597 
L 467.394638 925.106078 
L 529.368237 1001.629558 
L 577.438696 1078.153039 
L 616.71512 1154.676519 
L 649.922864 1231.2 
" style="fill:none;stroke:#35b779;stroke-linecap:square;stroke-width:1.5;"/>
   </g>
   <g id="line2d_62">
    <path clip-path="url(#pd048c57b80)" d="M -1 966.436503 
L 230.727273 966.472252 
L 380.047755 841.889636 
L 467.394638 918.413117 
L 529.368237 794.982512 
L 577.438696 871.505993 
L 616.71512 948.029473 
L 649.922864 823.947539 
L 678.68872 900.47102 
L 704.062003 976.9945 
L 726.759178 1053.517981 
L 747.291271 925.106078 
L 766.035603 1001.629558 
L 783.278716 1078.153039 
L 799.243346 1154.676519 
L 814.106061 1231.2 
" style="fill:none;stroke:#44bf70;stroke-linecap:square;stroke-width:1.5;"/>
   </g>
   <g id="line2d_63">
    <path clip-path="url(#pd048c57b80)" d="M -1 762.223333 
L 230.727273 762.16593 
L 380.047755 838.689411 
L 467.394638 716.35611 
L 529.368237 792.879591 
L 577.438696 670.900578 
L 616.71512 747.424059 
L 649.922864 823.947539 
L 678.68872 900.47102 
L 704.062003 976.9945 
L 726.759178 1053.517981 
L 747.291271 925.106078 
L 766.035603 1001.629558 
L 783.278716 1078.153039 
L 799.243346 1154.676519 
L 814.106061 1231.2 
" style="fill:none;stroke:#54c568;stroke-linecap:square;stroke-width:1.5;"/>
   </g>
   <g id="line2d_64">
    <path clip-path="url(#pd048c57b80)" d="M -1 956.830443 
L 230.727273 956.866192 
L 380.047755 1033.389672 
L 467.394638 1109.913153 
L 529.368237 976.9945 
L 577.438696 1053.517981 
L 616.71512 925.106078 
L 649.922864 1001.629558 
L 678.68872 1078.153039 
L 704.062003 1154.676519 
L 726.759178 1231.2 
" style="fill:none;stroke:#67cc5c;stroke-linecap:square;stroke-width:1.5;"/>
   </g>
   <g id="line2d_65">
    <path clip-path="url(#pd048c57b80)" d="M -1 753.144184 
L 230.727273 753.086841 
L 380.047755 829.610321 
L 467.394638 906.133802 
L 529.368237 782.926905 
L 577.438696 859.450386 
L 616.71512 736.90181 
L 649.922864 813.425291 
L 678.68872 889.948771 
L 704.062003 966.472252 
L 726.759178 841.889636 
L 747.291271 918.413117 
L 766.035603 794.982512 
L 783.278716 871.505993 
L 799.243346 948.029473 
L 814.106061 823.947539 
L 828.009202 900.47102 
L 841.069196 976.9945 
L 853.382485 1053.517981 
L 865.029858 925.106078 
L 876.079661 1001.629558 
L 886.590229 1078.153039 
L 896.611753 1154.676519 
L 906.187726 1231.2 
" style="fill:none;stroke:#7ad151;stroke-linecap:square;stroke-width:1.5;"/>
   </g>
   <g id="line2d_66">
    <path clip-path="url(#pd048c57b80)" d="M -1 947.993724 
L 230.727273 948.029473 
L 380.047755 823.947539 
L 467.394638 900.47102 
L 529.368237 976.9945 
L 577.438696 1053.517981 
L 616.71512 925.106078 
L 649.922864 1001.629558 
L 678.68872 1078.153039 
L 704.062003 1154.676519 
L 726.759178 1231.2 
" style="fill:none;stroke:#90d743;stroke-linecap:square;stroke-width:1.5;"/>
   </g>
   <g id="line2d_67">
    <path clip-path="url(#pd048c57b80)" d="M -1 744.755286 
L 230.727273 744.697993 
L 380.047755 821.221473 
L 467.394638 699.040694 
L 529.368237 775.564175 
L 577.438696 852.087655 
L 616.71512 729.620048 
L 649.922864 806.143528 
L 678.68872 684.076466 
L 704.062003 760.599946 
L 726.759178 638.796002 
L 747.291271 715.319482 
L 766.035603 593.689244 
L 783.278716 670.212725 
L 799.243346 548.697543 
L 814.106061 625.221023 
L 828.009202 701.744504 
L 841.069196 580.153942 
L 853.382485 656.677423 
L 865.029858 733.200904 
L 876.079661 611.5104 
L 886.590229 688.03388 
L 896.611753 566.478746 
L 906.187726 643.002227 
L 915.356085 719.525707 
L 924.150119 597.882155 
L 932.599199 674.405636 
L 940.729368 552.881624 
L 948.563829 629.405105 
L 956.123338 507.96043 
L 963.426543 584.483911 
L 970.490256 661.007392 
L 977.329685 539.510459 
L 983.958636 616.033939 
L 990.389678 494.607257 
L 996.634287 571.130737 
L 1002.702968 449.750765 
L 1008.605362 526.274245 
L 1014.35034 404.925358 
L 1019.946082 481.448839 
L 1025.400143 557.97232 
L 1030.719522 436.602807 
L 1035.910711 513.126287 
L 1040.979743 589.649768 
L 1045.932235 666.173248 
L 1050.773426 544.666262 
L 1055.508208 621.189742 
L 1060.141159 499.756379 
L 1064.676567 576.279859 
L 1069.118455 454.895442 
L 1073.470601 531.418923 
L 1077.736561 607.942404 
L 1081.919681 486.525598 
L 1086.023118 563.049078 
L 1090.049851 441.675677 
L 1094.002694 518.199157 
L 1097.884311 594.722638 
L 1101.697223 473.32049 
L 1105.443821 549.843971 
L 1109.12637 428.480324 
L 1112.747026 505.003804 
L 1116.307833 383.665787 
L 1119.810738 460.189267 
L 1123.257594 338.86832 
L 1126.650167 415.391801 
L 1129.99014 294.082226 
L 1133.279118 370.605706 
L 1136.518637 249.30371 
L 1139.710161 325.82719 
L 1142.855091 402.350671 
L 1145.954769 478.874152 
L 1149.010479 357.546917 
L 1152.02345 434.070397 
L 1154.994862 312.756633 
L 1157.925845 389.280114 
L 1160.817484 267.975326 
L 1163.670823 344.498806 
L 1166.486862 223.2 
L 1169.266564 299.723481 
L 1172.010855 376.246961 
L 1174.720625 452.770442 
L 1177.396733 529.293922 
L 1180.040005 407.943315 
L 1182.651236 484.466796 
L 1185.231194 560.990276 
L 1187.780619 439.618473 
L 1190.300226 516.141954 
L 1192.790703 592.665435 
L 1195.252718 471.265415 
L 1197.686912 547.788895 
L 1200.093909 624.312376 
L 1202.474308 700.835856 
L 1204.828691 777.359337 
L 1207.157621 655.470853 
L 1209.461642 731.994334 
L 1211.741281 808.517814 
L 1213.99705 885.041295 
L 1216.229442 762.16593 
L 1218.438937 838.689411 
L 1220.626001 716.35611 
L 1222.791084 792.879591 
L 1224.934623 670.900578 
L 1227.057043 747.424059 
L 1229.158757 823.947539 
L 1231.240163 900.47102 
L 1233.301652 976.9945 
L 1235.3436 1053.517981 
L 1237.366375 925.106078 
L 1239.370333 1001.629558 
L 1241.355821 1078.153039 
L 1243.323176 1154.676519 
L 1245.272727 1231.2 
" style="fill:none;stroke:#a5db36;stroke-linecap:square;stroke-width:1.5;"/>
   </g>
   <g id="line2d_68">
    <path clip-path="url(#pd048c57b80)" d="M -1 939.812201 
L 230.727273 939.84795 
L 380.047755 1016.37143 
L 467.394638 889.948771 
L 529.368237 966.472252 
L 577.438696 841.889636 
L 616.71512 918.413117 
L 649.922864 794.982512 
L 678.68872 871.505993 
L 704.062003 948.029473 
L 726.759178 823.947539 
L 747.291271 900.47102 
L 766.035603 976.9945 
L 783.278716 1053.517981 
L 799.243346 925.106078 
L 814.106061 1001.629558 
L 828.009202 1078.153039 
L 841.069196 1154.676519 
L 853.382485 1231.2 
" style="fill:none;stroke:#bddf26;stroke-linecap:square;stroke-width:1.5;"/>
   </g>
   <g id="line2d_69">
    <path clip-path="url(#pd048c57b80)" d="M -1 736.95906 
L 230.727273 736.90181 
L 380.047755 813.425291 
L 467.394638 889.948771 
L 529.368237 966.472252 
L 577.438696 841.889636 
L 616.71512 918.413117 
L 649.922864 794.982512 
L 678.68872 871.505993 
L 704.062003 948.029473 
L 726.759178 823.947539 
L 747.291271 900.47102 
L 766.035603 976.9945 
L 783.278716 1053.517981 
L 799.243346 925.106078 
L 814.106061 1001.629558 
L 828.009202 1078.153039 
L 841.069196 1154.676519 
L 853.382485 1231.2 
" style="fill:none;stroke:#d2e21b;stroke-linecap:square;stroke-width:1.5;"/>
   </g>
   <g id="line2d_70">
    <path clip-path="url(#pd048c57b80)" d="M -1 932.195385 
L 230.727273 932.231134 
L 380.047755 808.517814 
L 467.394638 885.041295 
L 529.368237 762.16593 
L 577.438696 838.689411 
L 616.71512 716.35611 
L 649.922864 792.879591 
L 678.68872 670.900578 
L 704.062003 747.424059 
L 726.759178 823.947539 
L 747.291271 900.47102 
L 766.035603 976.9945 
L 783.278716 1053.517981 
L 799.243346 925.106078 
L 814.106061 1001.629558 
L 828.009202 1078.153039 
L 841.069196 1154.676519 
L 853.382485 1231.2 
" style="fill:none;stroke:#eae51a;stroke-linecap:square;stroke-width:1.5;"/>
   </g>
   <g id="patch_3">
    <path d="M 180 1281.6 
L 180 172.8 
" style="fill:none;stroke:#000000;stroke-linecap:square;stroke-linejoin:miter;stroke-width:0.8;"/>
   </g>
   <g id="patch_4">
    <path d="M 1296 1281.6 
L 1296 172.8 
" style="fill:none;stroke:#000000;stroke-linecap:square;stroke-linejoin:miter;stroke-width:0.8;"/>
   </g>
   <g id="patch_5">
    <path d="M 180 1281.6 
L 1296 1281.6 
" style="fill:none;stroke:#000000;stroke-linecap:square;stroke-linejoin:miter;stroke-width:0.8;"/>
   </g>
   <g id="patch_6">
    <path d="M 180 172.8 
L 1296 172.8 
" style="fill:none;stroke:#000000;stroke-linecap:square;stroke-linejoin:miter;stroke-width:0.8;"/>
   </g>
  </g>
 </g>
 <defs>
  <clipPath id="pd048c57b80">
   <rect height="1108.8" width="1116" x="180" y="172.8"/>
  </clipPath>
 </defs>
</svg>
