<?xml version="1.0" encoding="utf-8" standalone="no"?>
<!DOCTYPE svg PUBLIC "-//W3C//DTD SVG 1.1//EN"
  "http://www.w3.org/Graphics/SVG/1.1/DTD/svg11.dtd">
<!-- Created with matplotlib (https://matplotlib.org/) -->
<svg height="1440pt" version="1.1" viewBox="0 0 1440 1440" width="1440pt" xmlns="http://www.w3.org/2000/svg" xmlns:xlink="http://www.w3.org/1999/xlink">
 <defs>
  <style type="text/css">
*{stroke-linecap:butt;stroke-linejoin:round;}
  </style>
 </defs>
 <g id="figure_1">
  <g id="patch_1">
   <path d="M 0 1440 
L 1440 1440 
L 1440 0 
L 0 0 
z
" style="fill:#ffffff;"/>
  </g>
  <g id="axes_1">
   <g id="patch_2">
    <path d="M 180 1281.6 
L 1296 1281.6 
L 1296 172.8 
L 180 172.8 
z
" style="fill:#ffffff;"/>
   </g>
   <g id="matplotlib.axis_1">
    <g id="xtick_1"/>
    <g id="xtick_2"/>
    <g id="xtick_3"/>
    <g id="xtick_4"/>
    <g id="xtick_5"/>
    <g id="xtick_6"/>
   </g>
   <g id="matplotlib.axis_2">
    <g id="ytick_1">
     <g id="line2d_1">
      <defs>
       <path d="M 0 0 
L -3.5 0 
" id="md0fe4b588d" style="stroke:#000000;stroke-width:0.8;"/>
      </defs>
      <g>
       <use style="stroke:#000000;stroke-width:0.8;" x="180" xlink:href="#md0fe4b588d" y="1231.309197"/>
      </g>
     </g>
     <g id="text_1">
      <!-- 0 -->
      <defs>
       <path d="M 31.78125 66.40625 
Q 24.171875 66.40625 20.328125 58.90625 
Q 16.5 51.421875 16.5 36.375 
Q 16.5 21.390625 20.328125 13.890625 
Q 24.171875 6.390625 31.78125 6.390625 
Q 39.453125 6.390625 43.28125 13.890625 
Q 47.125 21.390625 47.125 36.375 
Q 47.125 51.421875 43.28125 58.90625 
Q 39.453125 66.40625 31.78125 66.40625 
z
M 31.78125 74.21875 
Q 44.046875 74.21875 50.515625 64.515625 
Q 56.984375 54.828125 56.984375 36.375 
Q 56.984375 17.96875 50.515625 8.265625 
Q 44.046875 -1.421875 31.78125 -1.421875 
Q 19.53125 -1.421875 13.0625 8.265625 
Q 6.59375 17.96875 6.59375 36.375 
Q 6.59375 54.828125 13.0625 64.515625 
Q 19.53125 74.21875 31.78125 74.21875 
z
" id="DejaVuSans-48"/>
      </defs>
      <g transform="translate(166.6375 1235.108416)scale(0.1 -0.1)">
       <use xlink:href="#DejaVuSans-48"/>
      </g>
     </g>
    </g>
    <g id="ytick_2">
     <g id="line2d_2">
      <g>
       <use style="stroke:#000000;stroke-width:0.8;" x="180" xlink:href="#md0fe4b588d" y="1012.914657"/>
      </g>
     </g>
     <g id="text_2">
      <!-- 2000 -->
      <defs>
       <path d="M 19.1875 8.296875 
L 53.609375 8.296875 
L 53.609375 0 
L 7.328125 0 
L 7.328125 8.296875 
Q 12.9375 14.109375 22.625 23.890625 
Q 32.328125 33.6875 34.8125 36.53125 
Q 39.546875 41.84375 41.421875 45.53125 
Q 43.3125 49.21875 43.3125 52.78125 
Q 43.3125 58.59375 39.234375 62.25 
Q 35.15625 65.921875 28.609375 65.921875 
Q 23.96875 65.921875 18.8125 64.3125 
Q 13.671875 62.703125 7.8125 59.421875 
L 7.8125 69.390625 
Q 13.765625 71.78125 18.9375 73 
Q 24.125 74.21875 28.421875 74.21875 
Q 39.75 74.21875 46.484375 68.546875 
Q 53.21875 62.890625 53.21875 53.421875 
Q 53.21875 48.921875 51.53125 44.890625 
Q 49.859375 40.875 45.40625 35.40625 
Q 44.1875 33.984375 37.640625 27.21875 
Q 31.109375 20.453125 19.1875 8.296875 
z
" id="DejaVuSans-50"/>
      </defs>
      <g transform="translate(147.55 1016.713876)scale(0.1 -0.1)">
       <use xlink:href="#DejaVuSans-50"/>
       <use x="63.623047" xlink:href="#DejaVuSans-48"/>
       <use x="127.246094" xlink:href="#DejaVuSans-48"/>
       <use x="190.869141" xlink:href="#DejaVuSans-48"/>
      </g>
     </g>
    </g>
    <g id="ytick_3">
     <g id="line2d_3">
      <g>
       <use style="stroke:#000000;stroke-width:0.8;" x="180" xlink:href="#md0fe4b588d" y="794.520117"/>
      </g>
     </g>
     <g id="text_3">
      <!-- 4000 -->
      <defs>
       <path d="M 37.796875 64.3125 
L 12.890625 25.390625 
L 37.796875 25.390625 
z
M 35.203125 72.90625 
L 47.609375 72.90625 
L 47.609375 25.390625 
L 58.015625 25.390625 
L 58.015625 17.1875 
L 47.609375 17.1875 
L 47.609375 0 
L 37.796875 0 
L 37.796875 17.1875 
L 4.890625 17.1875 
L 4.890625 26.703125 
z
" id="DejaVuSans-52"/>
      </defs>
      <g transform="translate(147.55 798.319336)scale(0.1 -0.1)">
       <use xlink:href="#DejaVuSans-52"/>
       <use x="63.623047" xlink:href="#DejaVuSans-48"/>
       <use x="127.246094" xlink:href="#DejaVuSans-48"/>
       <use x="190.869141" xlink:href="#DejaVuSans-48"/>
      </g>
     </g>
    </g>
    <g id="ytick_4">
     <g id="line2d_4">
      <g>
       <use style="stroke:#000000;stroke-width:0.8;" x="180" xlink:href="#md0fe4b588d" y="576.125577"/>
      </g>
     </g>
     <g id="text_4">
      <!-- 6000 -->
      <defs>
       <path d="M 33.015625 40.375 
Q 26.375 40.375 22.484375 35.828125 
Q 18.609375 31.296875 18.609375 23.390625 
Q 18.609375 15.53125 22.484375 10.953125 
Q 26.375 6.390625 33.015625 6.390625 
Q 39.65625 6.390625 43.53125 10.953125 
Q 47.40625 15.53125 47.40625 23.390625 
Q 47.40625 31.296875 43.53125 35.828125 
Q 39.65625 40.375 33.015625 40.375 
z
M 52.59375 71.296875 
L 52.59375 62.3125 
Q 48.875 64.0625 45.09375 64.984375 
Q 41.3125 65.921875 37.59375 65.921875 
Q 27.828125 65.921875 22.671875 59.328125 
Q 17.53125 52.734375 16.796875 39.40625 
Q 19.671875 43.65625 24.015625 45.921875 
Q 28.375 48.1875 33.59375 48.1875 
Q 44.578125 48.1875 50.953125 41.515625 
Q 57.328125 34.859375 57.328125 23.390625 
Q 57.328125 12.15625 50.6875 5.359375 
Q 44.046875 -1.421875 33.015625 -1.421875 
Q 20.359375 -1.421875 13.671875 8.265625 
Q 6.984375 17.96875 6.984375 36.375 
Q 6.984375 53.65625 15.1875 63.9375 
Q 23.390625 74.21875 37.203125 74.21875 
Q 40.921875 74.21875 44.703125 73.484375 
Q 48.484375 72.75 52.59375 71.296875 
z
" id="DejaVuSans-54"/>
      </defs>
      <g transform="translate(147.55 579.924796)scale(0.1 -0.1)">
       <use xlink:href="#DejaVuSans-54"/>
       <use x="63.623047" xlink:href="#DejaVuSans-48"/>
       <use x="127.246094" xlink:href="#DejaVuSans-48"/>
       <use x="190.869141" xlink:href="#DejaVuSans-48"/>
      </g>
     </g>
    </g>
    <g id="ytick_5">
     <g id="line2d_5">
      <g>
       <use style="stroke:#000000;stroke-width:0.8;" x="180" xlink:href="#md0fe4b588d" y="357.731037"/>
      </g>
     </g>
     <g id="text_5">
      <!-- 8000 -->
      <defs>
       <path d="M 31.78125 34.625 
Q 24.75 34.625 20.71875 30.859375 
Q 16.703125 27.09375 16.703125 20.515625 
Q 16.703125 13.921875 20.71875 10.15625 
Q 24.75 6.390625 31.78125 6.390625 
Q 38.8125 6.390625 42.859375 10.171875 
Q 46.921875 13.96875 46.921875 20.515625 
Q 46.921875 27.09375 42.890625 30.859375 
Q 38.875 34.625 31.78125 34.625 
z
M 21.921875 38.8125 
Q 15.578125 40.375 12.03125 44.71875 
Q 8.5 49.078125 8.5 55.328125 
Q 8.5 64.0625 14.71875 69.140625 
Q 20.953125 74.21875 31.78125 74.21875 
Q 42.671875 74.21875 48.875 69.140625 
Q 55.078125 64.0625 55.078125 55.328125 
Q 55.078125 49.078125 51.53125 44.71875 
Q 48 40.375 41.703125 38.8125 
Q 48.828125 37.15625 52.796875 32.3125 
Q 56.78125 27.484375 56.78125 20.515625 
Q 56.78125 9.90625 50.3125 4.234375 
Q 43.84375 -1.421875 31.78125 -1.421875 
Q 19.734375 -1.421875 13.25 4.234375 
Q 6.78125 9.90625 6.78125 20.515625 
Q 6.78125 27.484375 10.78125 32.3125 
Q 14.796875 37.15625 21.921875 38.8125 
z
M 18.3125 54.390625 
Q 18.3125 48.734375 21.84375 45.5625 
Q 25.390625 42.390625 31.78125 42.390625 
Q 38.140625 42.390625 41.71875 45.5625 
Q 45.3125 48.734375 45.3125 54.390625 
Q 45.3125 60.0625 41.71875 63.234375 
Q 38.140625 66.40625 31.78125 66.40625 
Q 25.390625 66.40625 21.84375 63.234375 
Q 18.3125 60.0625 18.3125 54.390625 
z
" id="DejaVuSans-56"/>
      </defs>
      <g transform="translate(147.55 361.530255)scale(0.1 -0.1)">
       <use xlink:href="#DejaVuSans-56"/>
       <use x="63.623047" xlink:href="#DejaVuSans-48"/>
       <use x="127.246094" xlink:href="#DejaVuSans-48"/>
       <use x="190.869141" xlink:href="#DejaVuSans-48"/>
      </g>
     </g>
    </g>
   </g>
   <g id="line2d_6">
    <path clip-path="url(#pc6144926f9)" d="M 230.727273 1228.360871 
L 239.867322 1222.355021 
L 249.007371 1226.832109 
L 258.14742 1217.768736 
L 267.287469 1224.538967 
L 276.427518 1227.924082 
L 285.567568 1221.044654 
L 294.707617 1226.176926 
L 303.847666 1215.803185 
L 312.987715 1223.556191 
L 322.127764 1207.940981 
L 331.267813 1219.625089 
L 340.407862 1196.147676 
L 349.547912 1213.728437 
L 358.687961 1178.457719 
L 367.82801 1204.883458 
L 376.968059 1218.096328 
L 386.108108 1191.561391 
L 395.248157 1211.435294 
L 404.388206 1221.372246 
L 413.528256 1201.389145 
L 422.668305 1216.349171 
L 431.808354 1186.319922 
L 440.948403 1208.81456 
L 450.088452 1220.061878 
L 459.228501 1197.458044 
L 468.36855 1214.38362 
L 477.5086 1180.423269 
L 486.648649 1205.866233 
L 495.788698 1154.871108 
L 504.928747 1193.090153 
L 514.068796 1212.199675 
L 523.208845 1173.871433 
L 532.348894 1202.590315 
L 541.488943 1145.043354 
L 550.628993 1188.176276 
L 559.769042 1101.801235 
L 568.909091 1166.555216 
L 578.04914 1036.938057 
L 587.189189 1134.123627 
L 596.329238 1182.716412 
L 605.469287 1085.421644 
L 614.609337 1158.365421 
L 623.749386 1194.837309 
L 632.889435 1213.073253 
L 642.029484 1176.492168 
L 651.169533 1203.900682 
L 660.309582 1148.974456 
L 669.449631 1190.141826 
L 678.589681 1107.697888 
L 687.72973 1169.503542 
L 696.869779 1200.40637 
L 706.009828 1138.491518 
L 715.149877 1184.900357 
L 724.289926 1091.973481 
L 733.429975 1161.641339 
L 742.570025 1196.475268 
L 751.710074 1126.698213 
L 760.850123 1179.003705 
L 769.990172 1074.283523 
L 779.130221 1152.79636 
L 788.27027 995.661488 
L 797.410319 1113.485343 
L 806.550369 877.728437 
L 815.690418 1054.518817 
L 824.830467 700.828859 
L 833.970516 966.069028 
L 843.110565 435.479493 
L 852.250614 833.394345 
L 861.390663 1032.351771 
L 870.530713 1131.830484 
L 879.670762 932.763861 
L 888.810811 1082.036529 
L 897.95086 783.381995 
L 907.090909 1007.345596 
L 916.230958 559.309197 
L 925.371007 895.309197 
L 934.511057 223.2 
L 943.651106 727.254599 
L 952.791155 979.281898 
L 961.931204 1105.295548 
L 971.071253 1168.302372 
L 980.211302 1042.179526 
L 989.351351 1136.744361 
L 998.4914 1184.026779 
L 1007.63145 1089.352746 
L 1016.771499 1160.330972 
L 1025.911548 1195.820084 
L 1035.051597 1124.732662 
L 1044.191646 1178.020929 
L 1053.331695 1204.665063 
L 1062.471744 1217.98713 
L 1071.611794 1224.648164 
L 1080.751843 1211.2169 
L 1089.891892 1221.263048 
L 1099.031941 1226.286123 
L 1108.17199 1228.79766 
L 1117.312039 1223.665388 
L 1126.452088 1227.487293 
L 1135.592138 1219.734287 
L 1144.732187 1225.521742 
L 1153.872236 1213.837634 
L 1163.012285 1222.573416 
L 1172.152334 1226.941306 
L 1181.292383 1229.125252 
L 1190.432432 1230.217225 
L 1199.572482 1230.763211 
L 1208.712531 1229.562041 
L 1217.85258 1230.435619 
L 1226.992629 1230.872408 
L 1236.132678 1231.090803 
L 1245.272727 1231.2 
" style="fill:none;stroke:#1f77b4;stroke-linecap:square;stroke-width:1.5;"/>
    <defs>
     <path d="M 0 3 
C 0.795609 3 1.55874 2.683901 2.12132 2.12132 
C 2.683901 1.55874 3 0.795609 3 0 
C 3 -0.795609 2.683901 -1.55874 2.12132 -2.12132 
C 1.55874 -2.683901 0.795609 -3 0 -3 
C -0.795609 -3 -1.55874 -2.683901 -2.12132 -2.12132 
C -2.683901 -1.55874 -3 -0.795609 -3 0 
C -3 0.795609 -2.683901 1.55874 -2.12132 2.12132 
C -1.55874 2.683901 -0.795609 3 0 3 
z
" id="md77d4e8332" style="stroke:#1f77b4;"/>
    </defs>
    <g clip-path="url(#pc6144926f9)">
     <use style="fill:#1f77b4;stroke:#1f77b4;" x="230.727273" xlink:href="#md77d4e8332" y="1228.360871"/>
     <use style="fill:#1f77b4;stroke:#1f77b4;" x="239.867322" xlink:href="#md77d4e8332" y="1222.355021"/>
     <use style="fill:#1f77b4;stroke:#1f77b4;" x="249.007371" xlink:href="#md77d4e8332" y="1226.832109"/>
     <use style="fill:#1f77b4;stroke:#1f77b4;" x="258.14742" xlink:href="#md77d4e8332" y="1217.768736"/>
     <use style="fill:#1f77b4;stroke:#1f77b4;" x="267.287469" xlink:href="#md77d4e8332" y="1224.538967"/>
     <use style="fill:#1f77b4;stroke:#1f77b4;" x="276.427518" xlink:href="#md77d4e8332" y="1227.924082"/>
     <use style="fill:#1f77b4;stroke:#1f77b4;" x="285.567568" xlink:href="#md77d4e8332" y="1221.044654"/>
     <use style="fill:#1f77b4;stroke:#1f77b4;" x="294.707617" xlink:href="#md77d4e8332" y="1226.176926"/>
     <use style="fill:#1f77b4;stroke:#1f77b4;" x="303.847666" xlink:href="#md77d4e8332" y="1215.803185"/>
     <use style="fill:#1f77b4;stroke:#1f77b4;" x="312.987715" xlink:href="#md77d4e8332" y="1223.556191"/>
     <use style="fill:#1f77b4;stroke:#1f77b4;" x="322.127764" xlink:href="#md77d4e8332" y="1207.940981"/>
     <use style="fill:#1f77b4;stroke:#1f77b4;" x="331.267813" xlink:href="#md77d4e8332" y="1219.625089"/>
     <use style="fill:#1f77b4;stroke:#1f77b4;" x="340.407862" xlink:href="#md77d4e8332" y="1196.147676"/>
     <use style="fill:#1f77b4;stroke:#1f77b4;" x="349.547912" xlink:href="#md77d4e8332" y="1213.728437"/>
     <use style="fill:#1f77b4;stroke:#1f77b4;" x="358.687961" xlink:href="#md77d4e8332" y="1178.457719"/>
     <use style="fill:#1f77b4;stroke:#1f77b4;" x="367.82801" xlink:href="#md77d4e8332" y="1204.883458"/>
     <use style="fill:#1f77b4;stroke:#1f77b4;" x="376.968059" xlink:href="#md77d4e8332" y="1218.096328"/>
     <use style="fill:#1f77b4;stroke:#1f77b4;" x="386.108108" xlink:href="#md77d4e8332" y="1191.561391"/>
     <use style="fill:#1f77b4;stroke:#1f77b4;" x="395.248157" xlink:href="#md77d4e8332" y="1211.435294"/>
     <use style="fill:#1f77b4;stroke:#1f77b4;" x="404.388206" xlink:href="#md77d4e8332" y="1221.372246"/>
     <use style="fill:#1f77b4;stroke:#1f77b4;" x="413.528256" xlink:href="#md77d4e8332" y="1201.389145"/>
     <use style="fill:#1f77b4;stroke:#1f77b4;" x="422.668305" xlink:href="#md77d4e8332" y="1216.349171"/>
     <use style="fill:#1f77b4;stroke:#1f77b4;" x="431.808354" xlink:href="#md77d4e8332" y="1186.319922"/>
     <use style="fill:#1f77b4;stroke:#1f77b4;" x="440.948403" xlink:href="#md77d4e8332" y="1208.81456"/>
     <use style="fill:#1f77b4;stroke:#1f77b4;" x="450.088452" xlink:href="#md77d4e8332" y="1220.061878"/>
     <use style="fill:#1f77b4;stroke:#1f77b4;" x="459.228501" xlink:href="#md77d4e8332" y="1197.458044"/>
     <use style="fill:#1f77b4;stroke:#1f77b4;" x="468.36855" xlink:href="#md77d4e8332" y="1214.38362"/>
     <use style="fill:#1f77b4;stroke:#1f77b4;" x="477.5086" xlink:href="#md77d4e8332" y="1180.423269"/>
     <use style="fill:#1f77b4;stroke:#1f77b4;" x="486.648649" xlink:href="#md77d4e8332" y="1205.866233"/>
     <use style="fill:#1f77b4;stroke:#1f77b4;" x="495.788698" xlink:href="#md77d4e8332" y="1154.871108"/>
     <use style="fill:#1f77b4;stroke:#1f77b4;" x="504.928747" xlink:href="#md77d4e8332" y="1193.090153"/>
     <use style="fill:#1f77b4;stroke:#1f77b4;" x="514.068796" xlink:href="#md77d4e8332" y="1212.199675"/>
     <use style="fill:#1f77b4;stroke:#1f77b4;" x="523.208845" xlink:href="#md77d4e8332" y="1173.871433"/>
     <use style="fill:#1f77b4;stroke:#1f77b4;" x="532.348894" xlink:href="#md77d4e8332" y="1202.590315"/>
     <use style="fill:#1f77b4;stroke:#1f77b4;" x="541.488943" xlink:href="#md77d4e8332" y="1145.043354"/>
     <use style="fill:#1f77b4;stroke:#1f77b4;" x="550.628993" xlink:href="#md77d4e8332" y="1188.176276"/>
     <use style="fill:#1f77b4;stroke:#1f77b4;" x="559.769042" xlink:href="#md77d4e8332" y="1101.801235"/>
     <use style="fill:#1f77b4;stroke:#1f77b4;" x="568.909091" xlink:href="#md77d4e8332" y="1166.555216"/>
     <use style="fill:#1f77b4;stroke:#1f77b4;" x="578.04914" xlink:href="#md77d4e8332" y="1036.938057"/>
     <use style="fill:#1f77b4;stroke:#1f77b4;" x="587.189189" xlink:href="#md77d4e8332" y="1134.123627"/>
     <use style="fill:#1f77b4;stroke:#1f77b4;" x="596.329238" xlink:href="#md77d4e8332" y="1182.716412"/>
     <use style="fill:#1f77b4;stroke:#1f77b4;" x="605.469287" xlink:href="#md77d4e8332" y="1085.421644"/>
     <use style="fill:#1f77b4;stroke:#1f77b4;" x="614.609337" xlink:href="#md77d4e8332" y="1158.365421"/>
     <use style="fill:#1f77b4;stroke:#1f77b4;" x="623.749386" xlink:href="#md77d4e8332" y="1194.837309"/>
     <use style="fill:#1f77b4;stroke:#1f77b4;" x="632.889435" xlink:href="#md77d4e8332" y="1213.073253"/>
     <use style="fill:#1f77b4;stroke:#1f77b4;" x="642.029484" xlink:href="#md77d4e8332" y="1176.492168"/>
     <use style="fill:#1f77b4;stroke:#1f77b4;" x="651.169533" xlink:href="#md77d4e8332" y="1203.900682"/>
     <use style="fill:#1f77b4;stroke:#1f77b4;" x="660.309582" xlink:href="#md77d4e8332" y="1148.974456"/>
     <use style="fill:#1f77b4;stroke:#1f77b4;" x="669.449631" xlink:href="#md77d4e8332" y="1190.141826"/>
     <use style="fill:#1f77b4;stroke:#1f77b4;" x="678.589681" xlink:href="#md77d4e8332" y="1107.697888"/>
     <use style="fill:#1f77b4;stroke:#1f77b4;" x="687.72973" xlink:href="#md77d4e8332" y="1169.503542"/>
     <use style="fill:#1f77b4;stroke:#1f77b4;" x="696.869779" xlink:href="#md77d4e8332" y="1200.40637"/>
     <use style="fill:#1f77b4;stroke:#1f77b4;" x="706.009828" xlink:href="#md77d4e8332" y="1138.491518"/>
     <use style="fill:#1f77b4;stroke:#1f77b4;" x="715.149877" xlink:href="#md77d4e8332" y="1184.900357"/>
     <use style="fill:#1f77b4;stroke:#1f77b4;" x="724.289926" xlink:href="#md77d4e8332" y="1091.973481"/>
     <use style="fill:#1f77b4;stroke:#1f77b4;" x="733.429975" xlink:href="#md77d4e8332" y="1161.641339"/>
     <use style="fill:#1f77b4;stroke:#1f77b4;" x="742.570025" xlink:href="#md77d4e8332" y="1196.475268"/>
     <use style="fill:#1f77b4;stroke:#1f77b4;" x="751.710074" xlink:href="#md77d4e8332" y="1126.698213"/>
     <use style="fill:#1f77b4;stroke:#1f77b4;" x="760.850123" xlink:href="#md77d4e8332" y="1179.003705"/>
     <use style="fill:#1f77b4;stroke:#1f77b4;" x="769.990172" xlink:href="#md77d4e8332" y="1074.283523"/>
     <use style="fill:#1f77b4;stroke:#1f77b4;" x="779.130221" xlink:href="#md77d4e8332" y="1152.79636"/>
     <use style="fill:#1f77b4;stroke:#1f77b4;" x="788.27027" xlink:href="#md77d4e8332" y="995.661488"/>
     <use style="fill:#1f77b4;stroke:#1f77b4;" x="797.410319" xlink:href="#md77d4e8332" y="1113.485343"/>
     <use style="fill:#1f77b4;stroke:#1f77b4;" x="806.550369" xlink:href="#md77d4e8332" y="877.728437"/>
     <use style="fill:#1f77b4;stroke:#1f77b4;" x="815.690418" xlink:href="#md77d4e8332" y="1054.518817"/>
     <use style="fill:#1f77b4;stroke:#1f77b4;" x="824.830467" xlink:href="#md77d4e8332" y="700.828859"/>
     <use style="fill:#1f77b4;stroke:#1f77b4;" x="833.970516" xlink:href="#md77d4e8332" y="966.069028"/>
     <use style="fill:#1f77b4;stroke:#1f77b4;" x="843.110565" xlink:href="#md77d4e8332" y="435.479493"/>
     <use style="fill:#1f77b4;stroke:#1f77b4;" x="852.250614" xlink:href="#md77d4e8332" y="833.394345"/>
     <use style="fill:#1f77b4;stroke:#1f77b4;" x="861.390663" xlink:href="#md77d4e8332" y="1032.351771"/>
     <use style="fill:#1f77b4;stroke:#1f77b4;" x="870.530713" xlink:href="#md77d4e8332" y="1131.830484"/>
     <use style="fill:#1f77b4;stroke:#1f77b4;" x="879.670762" xlink:href="#md77d4e8332" y="932.763861"/>
     <use style="fill:#1f77b4;stroke:#1f77b4;" x="888.810811" xlink:href="#md77d4e8332" y="1082.036529"/>
     <use style="fill:#1f77b4;stroke:#1f77b4;" x="897.95086" xlink:href="#md77d4e8332" y="783.381995"/>
     <use style="fill:#1f77b4;stroke:#1f77b4;" x="907.090909" xlink:href="#md77d4e8332" y="1007.345596"/>
     <use style="fill:#1f77b4;stroke:#1f77b4;" x="916.230958" xlink:href="#md77d4e8332" y="559.309197"/>
     <use style="fill:#1f77b4;stroke:#1f77b4;" x="925.371007" xlink:href="#md77d4e8332" y="895.309197"/>
     <use style="fill:#1f77b4;stroke:#1f77b4;" x="934.511057" xlink:href="#md77d4e8332" y="223.2"/>
     <use style="fill:#1f77b4;stroke:#1f77b4;" x="943.651106" xlink:href="#md77d4e8332" y="727.254599"/>
     <use style="fill:#1f77b4;stroke:#1f77b4;" x="952.791155" xlink:href="#md77d4e8332" y="979.281898"/>
     <use style="fill:#1f77b4;stroke:#1f77b4;" x="961.931204" xlink:href="#md77d4e8332" y="1105.295548"/>
     <use style="fill:#1f77b4;stroke:#1f77b4;" x="971.071253" xlink:href="#md77d4e8332" y="1168.302372"/>
     <use style="fill:#1f77b4;stroke:#1f77b4;" x="980.211302" xlink:href="#md77d4e8332" y="1042.179526"/>
     <use style="fill:#1f77b4;stroke:#1f77b4;" x="989.351351" xlink:href="#md77d4e8332" y="1136.744361"/>
     <use style="fill:#1f77b4;stroke:#1f77b4;" x="998.4914" xlink:href="#md77d4e8332" y="1184.026779"/>
     <use style="fill:#1f77b4;stroke:#1f77b4;" x="1007.63145" xlink:href="#md77d4e8332" y="1089.352746"/>
     <use style="fill:#1f77b4;stroke:#1f77b4;" x="1016.771499" xlink:href="#md77d4e8332" y="1160.330972"/>
     <use style="fill:#1f77b4;stroke:#1f77b4;" x="1025.911548" xlink:href="#md77d4e8332" y="1195.820084"/>
     <use style="fill:#1f77b4;stroke:#1f77b4;" x="1035.051597" xlink:href="#md77d4e8332" y="1124.732662"/>
     <use style="fill:#1f77b4;stroke:#1f77b4;" x="1044.191646" xlink:href="#md77d4e8332" y="1178.020929"/>
     <use style="fill:#1f77b4;stroke:#1f77b4;" x="1053.331695" xlink:href="#md77d4e8332" y="1204.665063"/>
     <use style="fill:#1f77b4;stroke:#1f77b4;" x="1062.471744" xlink:href="#md77d4e8332" y="1217.98713"/>
     <use style="fill:#1f77b4;stroke:#1f77b4;" x="1071.611794" xlink:href="#md77d4e8332" y="1224.648164"/>
     <use style="fill:#1f77b4;stroke:#1f77b4;" x="1080.751843" xlink:href="#md77d4e8332" y="1211.2169"/>
     <use style="fill:#1f77b4;stroke:#1f77b4;" x="1089.891892" xlink:href="#md77d4e8332" y="1221.263048"/>
     <use style="fill:#1f77b4;stroke:#1f77b4;" x="1099.031941" xlink:href="#md77d4e8332" y="1226.286123"/>
     <use style="fill:#1f77b4;stroke:#1f77b4;" x="1108.17199" xlink:href="#md77d4e8332" y="1228.79766"/>
     <use style="fill:#1f77b4;stroke:#1f77b4;" x="1117.312039" xlink:href="#md77d4e8332" y="1223.665388"/>
     <use style="fill:#1f77b4;stroke:#1f77b4;" x="1126.452088" xlink:href="#md77d4e8332" y="1227.487293"/>
     <use style="fill:#1f77b4;stroke:#1f77b4;" x="1135.592138" xlink:href="#md77d4e8332" y="1219.734287"/>
     <use style="fill:#1f77b4;stroke:#1f77b4;" x="1144.732187" xlink:href="#md77d4e8332" y="1225.521742"/>
     <use style="fill:#1f77b4;stroke:#1f77b4;" x="1153.872236" xlink:href="#md77d4e8332" y="1213.837634"/>
     <use style="fill:#1f77b4;stroke:#1f77b4;" x="1163.012285" xlink:href="#md77d4e8332" y="1222.573416"/>
     <use style="fill:#1f77b4;stroke:#1f77b4;" x="1172.152334" xlink:href="#md77d4e8332" y="1226.941306"/>
     <use style="fill:#1f77b4;stroke:#1f77b4;" x="1181.292383" xlink:href="#md77d4e8332" y="1229.125252"/>
     <use style="fill:#1f77b4;stroke:#1f77b4;" x="1190.432432" xlink:href="#md77d4e8332" y="1230.217225"/>
     <use style="fill:#1f77b4;stroke:#1f77b4;" x="1199.572482" xlink:href="#md77d4e8332" y="1230.763211"/>
     <use style="fill:#1f77b4;stroke:#1f77b4;" x="1208.712531" xlink:href="#md77d4e8332" y="1229.562041"/>
     <use style="fill:#1f77b4;stroke:#1f77b4;" x="1217.85258" xlink:href="#md77d4e8332" y="1230.435619"/>
     <use style="fill:#1f77b4;stroke:#1f77b4;" x="1226.992629" xlink:href="#md77d4e8332" y="1230.872408"/>
     <use style="fill:#1f77b4;stroke:#1f77b4;" x="1236.132678" xlink:href="#md77d4e8332" y="1231.090803"/>
     <use style="fill:#1f77b4;stroke:#1f77b4;" x="1245.272727" xlink:href="#md77d4e8332" y="1231.2"/>
    </g>
   </g>
   <g id="patch_3">
    <path d="M 180 1281.6 
L 180 172.8 
" style="fill:none;stroke:#000000;stroke-linecap:square;stroke-linejoin:miter;stroke-width:0.8;"/>
   </g>
   <g id="patch_4">
    <path d="M 1296 1281.6 
L 1296 172.8 
" style="fill:none;stroke:#000000;stroke-linecap:square;stroke-linejoin:miter;stroke-width:0.8;"/>
   </g>
   <g id="patch_5">
    <path d="M 180 1281.6 
L 1296 1281.6 
" style="fill:none;stroke:#000000;stroke-linecap:square;stroke-linejoin:miter;stroke-width:0.8;"/>
   </g>
   <g id="patch_6">
    <path d="M 180 172.8 
L 1296 172.8 
" style="fill:none;stroke:#000000;stroke-linecap:square;stroke-linejoin:miter;stroke-width:0.8;"/>
   </g>
  </g>
 </g>
 <defs>
  <clipPath id="pc6144926f9">
   <rect height="1108.8" width="1116" x="180" y="172.8"/>
  </clipPath>
 </defs>
</svg>
